<svg width="447.367188" height="542.367676" viewBox="0 0 447.367 542.368" fill="none" xmlns="http://www.w3.org/2000/svg" xmlns:xlink="http://www.w3.org/1999/xlink">
	<desc>
			Created with Pixso.
	</desc>
	<defs>
		<filter id="filter_13_2813_dd" x="0.000000" y="0.000000" width="447.367188" height="542.367676" filterUnits="userSpaceOnUse" color-interpolation-filters="sRGB">
			<feFlood flood-opacity="0" result="BackgroundImageFix"/>
			<feColorMatrix in="SourceAlpha" type="matrix" values="0 0 0 0 0 0 0 0 0 0 0 0 0 0 0 0 0 0 127 0" result="hardAlpha"/>
			<feMorphology radius="-7.56738" in="" result="BackgroundImageFix"/>
			<feOffset dx="0" dy="12.6123"/>
			<feGaussianBlur stdDeviation="14.0837"/>
			<feComposite in2="hardAlpha" operator="out" k2="-1" k3="1"/>
			<feColorMatrix type="matrix" values="0 0 0 0 0 0 0 0 0 0 0 0 0 0 0 0 0 0 0.13 0"/>
			<feBlend mode="normal" in2="BackgroundImageFix" result="effect_dropShadow_1"/>
			<feBlend mode="normal" in="SourceGraphic" in2="effect_dropShadow_1" result="shape"/>
		</filter>
		<filter id="filter_14_3609_dd" x="86.134766" y="61.037659" width="273.912109" height="273.612488" filterUnits="userSpaceOnUse" color-interpolation-filters="sRGB">
			<feFlood flood-opacity="0" result="BackgroundImageFix"/>
			<feColorMatrix in="SourceAlpha" type="matrix" values="0 0 0 0 0 0 0 0 0 0 0 0 0 0 0 0 0 0 127 0" result="hardAlpha"/>
			<feMorphology radius="-11.3536" in="" result="BackgroundImageFix"/>
			<feOffset dx="0" dy="18.9227"/>
			<feGaussianBlur stdDeviation="21.1304"/>
			<feComposite in2="hardAlpha" operator="out" k2="-1" k3="1"/>
			<feColorMatrix type="matrix" values="0 0 0 0 0 0 0 0 0 0 0 0 0 0 0 0 0 0 0.3 0"/>
			<feBlend mode="normal" in2="BackgroundImageFix" result="effect_dropShadow_1"/>
			<feBlend mode="normal" in="SourceGraphic" in2="effect_dropShadow_1" result="shape"/>
		</filter>
		<clipPath id="clip13_2814">
			<rect id="Обложка карточки" rx="29.684692" width="377.369385" height="313.369385" transform="translate(34.998901 22.386841)" fill="white" fill-opacity="0"/>
		</clipPath>
	</defs>
	<g filter="url(#filter_13_2813_dd)">
		<rect id="Frame 2043683128" rx="30.315308" width="378.630615" height="473.630615" transform="translate(34.368286 21.756226)" fill="#FFFFFF" fill-opacity="1.000000"/>
		<rect id="Обложка карточки" rx="29.684692" width="377.369385" height="313.369385" transform="translate(34.998901 22.386841)" fill="#AD61FF" fill-opacity="1.000000"/>
		<g clip-path="url(#clip13_2814)">
			<rect id="Frame 2043683072" rx="18.775000" width="100.966660" height="100.966667" transform="translate(5.010742 -132.664795) rotate(10.000000)" fill="#D9B6FF" fill-opacity="1.000000"/>
			<path id="44" d="M39.9 -66.01L44.05 -65.27L45.17 -71.55L41.01 -72.28L41.85 -77.03L34.37 -78.35L33.53 -73.6L27.85 -74.6L42.14 -88.94L33.95 -90.38L18.31 -75.13L17.39 -69.98L32.18 -67.37L31.23 -62.01L38.95 -60.65L39.9 -66.01ZM67.88 -61.07L72.03 -60.34L73.14 -66.61L68.99 -67.35L69.83 -72.1L62.35 -73.42L61.51 -68.67L55.83 -69.67L70.12 -84L61.93 -85.45L46.29 -70.19L45.37 -65.04L60.16 -62.44L59.21 -57.08L66.93 -55.72L67.88 -61.07Z" fill="#FFFFFF" fill-opacity="1.000000" fill-rule="evenodd"/>
			<path id="44" d="M44.05 -65.27L39.9 -66.01L38.95 -60.65L31.23 -62.01L32.18 -67.37L17.39 -69.98L18.31 -75.13L33.95 -90.38L42.14 -88.94L27.85 -74.6L33.53 -73.6L34.37 -78.35L41.85 -77.03L41.01 -72.28L45.17 -71.55L44.05 -65.27ZM72.03 -60.34L67.88 -61.07L66.93 -55.72L59.21 -57.08L60.16 -62.44L45.37 -65.04L46.29 -70.19L61.93 -85.45L70.12 -84L55.83 -69.67L61.51 -68.67L62.35 -73.42L69.83 -72.1L68.99 -67.35L73.14 -66.61L72.03 -60.34Z" stroke="#202027" stroke-opacity="1.000000" stroke-width="0.634167"/>
			<rect id="Frame 2043683072" rx="18.775000" width="100.966660" height="100.966667" transform="translate(5.010742 -132.664795) rotate(10.000000)" stroke="#202027" stroke-opacity="1.000000" stroke-width="0.500000"/>
			<rect id="Frame 2043683060" rx="18.775000" width="100.966660" height="100.966667" transform="translate(112.507812 -113.710205) rotate(10.000000)" fill="#D9B6FF" fill-opacity="1.000000"/>
			<path id="6" d="M160.6 -56.82Q158.86 -57.89 156.7 -58.27Q153.17 -58.89 150.57 -57.62Q150.28 -57.47 150.01 -57.31Q150.76 -60.08 152.57 -61.45Q152.78 -61.61 153.02 -61.76Q153.36 -61.97 153.72 -62.13Q155.67 -63.02 158.23 -62.57Q161.36 -62.02 163.14 -60.22L167.03 -65.4Q165.68 -66.66 163.62 -67.56Q161.55 -68.46 159.15 -68.89Q154.71 -69.67 151.03 -68.46Q149.56 -67.97 148.27 -67.18Q146.36 -65.99 144.88 -64.12Q142.42 -60.99 141.57 -56.2Q140.44 -49.83 142.98 -45.73Q143.1 -45.54 143.23 -45.35Q143.82 -44.5 144.53 -43.77Q147.31 -40.97 152.08 -40.13Q155.16 -39.59 157.87 -40.32Q159.73 -40.83 161.18 -41.9Q161.84 -42.38 162.41 -42.98Q162.92 -43.51 163.34 -44.12Q164.4 -45.69 164.77 -47.74Q165.11 -49.67 164.68 -51.4Q164.53 -52.01 164.29 -52.59Q163.9 -53.52 163.33 -54.31Q162.51 -55.45 161.33 -56.32Q160.98 -56.58 160.6 -56.82ZM155 -46.06Q153.94 -45.61 152.6 -45.84Q151.01 -46.12 150.13 -47.06Q150.01 -47.19 149.91 -47.32Q149.58 -47.77 149.41 -48.26Q149.13 -49.08 149.31 -50.06Q149.49 -51.07 150.06 -51.76Q150.38 -52.15 150.83 -52.43Q151.09 -52.6 151.37 -52.72Q152.45 -53.17 153.81 -52.93Q155.25 -52.67 156.11 -51.82Q156.27 -51.66 156.41 -51.48Q156.71 -51.1 156.88 -50.67Q157.21 -49.8 157.02 -48.74Q156.82 -47.59 156.16 -46.87Q155.87 -46.55 155.5 -46.32Q155.26 -46.17 155 -46.06Z" fill="#FFFFFF" fill-opacity="1.000000" fill-rule="evenodd"/>
			<path id="6" d="M156.7 -58.27Q159.33 -57.81 161.33 -56.32Q163.35 -54.84 164.29 -52.59Q165.23 -50.34 164.77 -47.74Q164.26 -44.9 162.41 -42.98Q160.57 -41.06 157.87 -40.32Q155.16 -39.59 152.08 -40.13Q146.08 -41.19 143.23 -45.35Q140.39 -49.53 141.57 -56.2Q142.42 -60.99 144.88 -64.12Q147.36 -67.25 151.03 -68.46Q154.71 -69.67 159.15 -68.89Q161.55 -68.46 163.62 -67.56Q165.68 -66.66 167.03 -65.4L163.14 -60.22Q161.36 -62.02 158.23 -62.57Q155.2 -63.1 153.02 -61.76Q150.85 -60.41 150.01 -57.31Q152.78 -58.96 156.7 -58.27ZM152.6 -45.84Q154.27 -45.55 155.5 -46.32Q156.73 -47.1 157.02 -48.74Q157.31 -50.34 156.41 -51.48Q155.53 -52.62 153.81 -52.93Q152.09 -53.23 150.83 -52.43Q149.59 -51.65 149.31 -50.06Q149.03 -48.5 149.91 -47.32Q150.8 -46.16 152.6 -45.84Z" stroke="#202027" stroke-opacity="1.000000" stroke-width="0.634167"/>
			<rect id="Frame 2043683060" rx="18.775000" width="100.966660" height="100.966667" transform="translate(112.507812 -113.710205) rotate(10.000000)" stroke="#202027" stroke-opacity="1.000000" stroke-width="0.500000"/>
			<rect id="Frame 2043683061" rx="18.775000" width="100.966660" height="100.966667" transform="translate(220.004883 -94.755615) rotate(10.000000)" fill="#D9B6FF" fill-opacity="1.000000"/>
			<path id="11" d="M255.5 -22.47L260.45 -50.44L247.35 -52.75L246.26 -46.64L251.46 -45.73L247.58 -23.86L255.5 -22.47ZM271.68 -19.61L276.64 -47.59L263.53 -49.9L262.45 -43.79L267.64 -42.87L263.77 -21.01L271.68 -19.61Z" fill="#FFFFFF" fill-opacity="1.000000" fill-rule="evenodd"/>
			<path id="11" d="M260.45 -50.44L255.5 -22.47L247.58 -23.86L251.46 -45.73L246.26 -46.64L247.35 -52.75L260.45 -50.44ZM276.64 -47.59L271.68 -19.61L263.77 -21.01L267.64 -42.87L262.45 -43.79L263.53 -49.9L276.64 -47.59Z" stroke="#202027" stroke-opacity="1.000000" stroke-width="0.634167"/>
			<rect id="Frame 2043683061" rx="18.775000" width="100.966660" height="100.966667" transform="translate(220.004883 -94.755615) rotate(10.000000)" stroke="#202027" stroke-opacity="1.000000" stroke-width="0.500000"/>
			<rect id="Frame 2043683123" rx="18.775000" width="100.966660" height="100.966667" transform="translate(327.501953 -75.800903) rotate(10.000000)" fill="#D9B6FF" fill-opacity="1.000000"/>
			<path id="48" d="M393.23 -10.55Q392.49 -12.37 390.77 -13.82Q392.11 -14.44 393.04 -15.44Q393.24 -15.64 393.42 -15.87Q393.65 -16.16 393.85 -16.48Q394.52 -17.57 394.77 -18.93Q395.03 -20.43 394.72 -21.81Q394.53 -22.66 394.12 -23.47Q394.11 -23.5 394.09 -23.52Q393.03 -25.6 390.69 -27.02Q388.34 -28.48 385.06 -29.05Q381.78 -29.63 379.06 -29.07Q376.39 -28.53 374.66 -26.95Q374.64 -26.93 374.61 -26.91Q373.97 -26.31 373.5 -25.58Q372.73 -24.38 372.46 -22.86Q372.22 -21.5 372.48 -20.24Q372.55 -19.88 372.67 -19.53Q372.76 -19.25 372.88 -18.99Q373.42 -17.74 374.45 -16.7Q372.35 -15.92 371.01 -14.47Q370.72 -14.14 370.47 -13.79Q369.6 -12.54 369.31 -10.89Q369.02 -9.23 369.37 -7.71Q369.57 -6.82 370 -5.98Q371.17 -3.72 373.73 -2.15Q376.3 -0.59 379.9 0.04Q383.5 0.68 386.45 0.09Q389.4 -0.51 391.26 -2.23Q391.97 -2.88 392.48 -3.66Q393.32 -4.96 393.61 -6.61Q393.9 -8.23 393.52 -9.68Q393.41 -10.12 393.23 -10.55ZM362.81 -9.07L366.97 -8.34L368.08 -14.61L363.92 -15.34L364.76 -20.1L357.29 -21.41L356.44 -16.66L350.77 -17.66L365.05 -32L356.86 -33.44L341.22 -18.19L340.31 -13.04L355.09 -10.43L354.14 -5.07L361.86 -3.71L362.81 -9.07ZM381.78 -23.26Q382.76 -23.72 384.07 -23.49Q385.51 -23.24 386.28 -22.38Q386.33 -22.33 386.37 -22.28Q386.6 -22 386.74 -21.68Q387.08 -20.93 386.9 -19.94Q386.74 -19.04 386.22 -18.46Q385.96 -18.18 385.61 -17.97Q385.55 -17.93 385.49 -17.9Q384.47 -17.36 383.03 -17.62Q381.58 -17.87 380.83 -18.74Q380.79 -18.78 380.75 -18.83Q380.51 -19.12 380.37 -19.46Q380.07 -20.19 380.23 -21.12Q380.4 -22.1 380.98 -22.7Q381.22 -22.95 381.53 -23.13Q381.65 -23.2 381.78 -23.26ZM384.11 -5.91Q382.81 -5.17 380.89 -5.51Q378.96 -5.85 377.99 -6.99Q377.61 -7.44 377.42 -7.96Q377.14 -8.76 377.31 -9.72Q377.48 -10.71 378.04 -11.37Q378.39 -11.78 378.89 -12.06L378.89 -12.07Q380.2 -12.8 382.12 -12.47Q384.04 -12.13 385 -10.98L385.01 -10.98Q385.39 -10.54 385.58 -10.02Q385.87 -9.22 385.7 -8.24Q385.53 -7.3 385 -6.65Q384.64 -6.21 384.11 -5.91Z" fill="#FFFFFF" fill-opacity="1.000000" fill-rule="evenodd"/>
			<path id="48" d="M366.97 -8.34L362.81 -9.07L361.86 -3.71L354.14 -5.07L355.09 -10.43L340.31 -13.04L341.22 -18.19L356.86 -33.44L365.05 -32L350.77 -17.66L356.44 -16.66L357.29 -21.41L364.76 -20.1L363.92 -15.34L368.08 -14.61L366.97 -8.34ZM390.77 -13.82Q392.49 -12.37 393.23 -10.55Q393.98 -8.72 393.61 -6.61Q393.14 -3.96 391.26 -2.23Q389.4 -0.51 386.45 0.09Q383.5 0.68 379.9 0.04Q376.3 -0.59 373.73 -2.15Q371.17 -3.72 370 -5.98Q368.84 -8.25 369.31 -10.89Q369.69 -13.01 371.01 -14.47Q372.35 -15.92 374.45 -16.7Q373.2 -17.95 372.67 -19.53Q372.15 -21.11 372.46 -22.86Q372.89 -25.3 374.61 -26.91Q376.35 -28.53 379.06 -29.07Q381.78 -29.63 385.06 -29.05Q388.34 -28.48 390.69 -27.02Q393.06 -25.58 394.12 -23.47Q395.2 -21.37 394.77 -18.93Q394.45 -17.17 393.42 -15.87Q392.38 -14.57 390.77 -13.82ZM384.07 -23.49Q382.6 -23.75 381.53 -23.13Q380.48 -22.52 380.23 -21.12Q379.99 -19.76 380.75 -18.83Q381.51 -17.89 383.03 -17.62Q384.55 -17.35 385.61 -17.97Q386.66 -18.59 386.9 -19.94Q387.15 -21.34 386.37 -22.28Q385.59 -23.22 384.07 -23.49ZM380.89 -5.51Q382.81 -5.17 384.11 -5.91Q385.42 -6.65 385.7 -8.24Q385.98 -9.84 385.01 -10.98Q384.04 -12.13 382.12 -12.47Q380.2 -12.81 378.89 -12.06Q377.59 -11.32 377.31 -9.72Q377.02 -8.13 377.99 -6.99Q378.96 -5.85 380.89 -5.51Z" stroke="#202027" stroke-opacity="1.000000" stroke-width="0.634167"/>
			<rect id="Frame 2043683123" rx="18.775000" width="100.966660" height="100.966667" transform="translate(327.501953 -75.800903) rotate(10.000000)" stroke="#202027" stroke-opacity="1.000000" stroke-width="0.500000"/>
			<rect id="Frame 2043683063" rx="18.775000" width="100.966660" height="100.966667" transform="translate(434.998047 -56.846436) rotate(10.000000)" fill="#D9B6FF" fill-opacity="1.000000"/>
			<path id="48" d="M500.73 8.41Q499.98 6.59 498.27 5.14Q499.6 4.51 500.54 3.52Q500.74 3.31 500.91 3.09Q501.15 2.79 501.34 2.48Q502.02 1.39 502.26 0.02Q502.53 -1.48 502.22 -2.85Q502.03 -3.71 501.62 -4.52Q501.6 -4.54 501.59 -4.57Q500.52 -6.64 498.19 -8.07Q495.83 -9.52 492.55 -10.1Q489.27 -10.68 486.56 -10.12Q483.88 -9.58 482.16 -8Q482.13 -7.98 482.11 -7.96Q481.46 -7.35 481 -6.63Q480.22 -5.43 479.95 -3.91Q479.71 -2.55 479.97 -1.29Q480.05 -0.93 480.17 -0.57Q480.26 -0.3 480.37 -0.04Q480.91 1.22 481.95 2.26Q479.84 3.03 478.51 4.49Q478.22 4.81 477.97 5.16Q477.1 6.41 476.81 8.06Q476.51 9.73 476.86 11.25Q477.07 12.14 477.5 12.97Q478.67 15.23 481.23 16.8Q483.8 18.36 487.4 19Q491 19.63 493.94 19.04Q496.9 18.45 498.76 16.72Q499.47 16.07 499.97 15.29Q500.81 14 501.11 12.35Q501.39 10.72 501.02 9.27Q500.9 8.83 500.73 8.41ZM470.3 9.88L474.46 10.62L475.57 4.34L471.42 3.61L472.26 -1.14L464.78 -2.46L463.94 2.29L458.26 1.29L472.54 -13.04L464.36 -14.49L448.71 0.77L447.8 5.92L462.59 8.52L461.64 13.88L469.36 15.24L470.3 9.88ZM489.28 -4.31Q490.26 -4.77 491.57 -4.54Q493 -4.28 493.78 -3.43Q493.83 -3.38 493.87 -3.33Q494.1 -3.05 494.24 -2.73Q494.57 -1.97 494.4 -0.99Q494.24 -0.09 493.72 0.49Q493.46 0.78 493.1 0.99Q493.05 1.02 492.99 1.05Q491.96 1.59 490.53 1.34Q489.08 1.08 488.32 0.22Q488.28 0.17 488.25 0.13Q488.01 -0.17 487.87 -0.5Q487.56 -1.23 487.73 -2.17Q487.9 -3.15 488.47 -3.75Q488.72 -4 489.03 -4.18Q489.15 -4.25 489.28 -4.31ZM491.6 13.05Q490.3 13.78 488.38 13.44Q486.46 13.11 485.48 11.97Q485.1 11.51 484.92 10.99Q484.63 10.19 484.8 9.23Q484.98 8.24 485.54 7.59Q485.89 7.18 486.38 6.89L486.39 6.89Q487.7 6.15 489.61 6.49Q491.54 6.83 492.5 7.97L492.5 7.97Q492.88 8.42 493.07 8.93Q493.37 9.74 493.19 10.71Q493.03 11.66 492.49 12.31Q492.13 12.75 491.6 13.05Z" fill="#FFFFFF" fill-opacity="1.000000" fill-rule="evenodd"/>
			<path id="48" d="M474.46 10.62L470.3 9.88L469.36 15.24L461.64 13.88L462.59 8.52L447.8 5.92L448.71 0.77L464.36 -14.49L472.54 -13.04L458.26 1.29L463.94 2.29L464.78 -2.46L472.26 -1.14L471.42 3.61L475.57 4.34L474.46 10.62ZM498.27 5.14Q499.98 6.59 500.73 8.41Q501.48 10.23 501.11 12.35Q500.64 14.99 498.76 16.72Q496.9 18.45 493.94 19.04Q491 19.63 487.4 19Q483.8 18.36 481.23 16.8Q478.67 15.23 477.5 12.97Q476.34 10.71 476.81 8.06Q477.18 5.95 478.51 4.49Q479.84 3.03 481.95 2.26Q480.69 1 480.17 -0.57Q479.64 -2.15 479.95 -3.91Q480.39 -6.35 482.11 -7.96Q483.85 -9.57 486.56 -10.12Q489.27 -10.68 492.55 -10.1Q495.83 -9.52 498.19 -8.07Q500.55 -6.63 501.62 -4.52Q502.69 -2.41 502.26 0.02Q501.95 1.78 500.91 3.09Q499.88 4.38 498.27 5.14ZM491.57 -4.54Q490.09 -4.8 489.03 -4.18Q487.97 -3.56 487.73 -2.17Q487.49 -0.81 488.25 0.13Q489 1.07 490.53 1.34Q492.05 1.6 493.1 0.99Q494.16 0.37 494.4 -0.99Q494.65 -2.38 493.87 -3.33Q493.09 -4.27 491.57 -4.54ZM488.38 13.44Q490.3 13.78 491.6 13.05Q492.91 12.3 493.19 10.71Q493.48 9.11 492.5 7.97Q491.54 6.83 489.61 6.49Q487.69 6.15 486.38 6.89Q485.09 7.63 484.8 9.23Q484.52 10.82 485.48 11.97Q486.46 13.11 488.38 13.44Z" stroke="#202027" stroke-opacity="1.000000" stroke-width="0.634167"/>
			<rect id="Frame 2043683063" rx="18.775000" width="100.966660" height="100.966667" transform="translate(434.998047 -56.846436) rotate(10.000000)" stroke="#202027" stroke-opacity="1.000000" stroke-width="0.500000"/>
			<rect id="Frame 2043683124" rx="18.775000" width="100.966660" height="100.966667" transform="translate(-13.929688 -25.245239) rotate(10.000000)" fill="#D9B6FF" fill-opacity="1.000000"/>
			<path id="44" d="M20.96 41.41L25.11 42.14L26.22 35.87L22.07 35.14L22.91 30.39L15.43 29.07L14.59 33.82L8.91 32.82L23.2 18.48L15.01 17.04L-0.63 32.29L-1.55 37.44L13.24 40.05L12.29 45.41L20.01 46.77L20.96 41.41ZM48.93 46.35L53.09 47.08L54.2 40.8L50.05 40.07L50.89 35.32L43.41 34L42.57 38.75L36.89 37.75L51.17 23.42L42.99 21.97L27.34 37.23L26.43 42.38L41.22 44.98L40.27 50.34L47.99 51.7L48.93 46.35Z" fill="#FFFFFF" fill-opacity="1.000000" fill-rule="evenodd"/>
			<path id="44" d="M25.11 42.14L20.96 41.41L20.01 46.77L12.29 45.41L13.24 40.05L-1.55 37.44L-0.63 32.29L15.01 17.04L23.2 18.48L8.91 32.82L14.59 33.82L15.43 29.07L22.91 30.39L22.07 35.14L26.22 35.87L25.11 42.14ZM53.09 47.08L48.93 46.35L47.99 51.7L40.27 50.34L41.22 44.98L26.43 42.38L27.34 37.23L42.99 21.97L51.17 23.42L36.89 37.75L42.57 38.75L43.41 34L50.89 35.32L50.05 40.07L54.2 40.8L53.09 47.08Z" stroke="#202027" stroke-opacity="1.000000" stroke-width="0.634167"/>
			<rect id="Frame 2043683124" rx="18.775000" width="100.966660" height="100.966667" transform="translate(-13.929688 -25.245239) rotate(10.000000)" stroke="#202027" stroke-opacity="1.000000" stroke-width="0.500000"/>
			<rect id="Frame 2043683125" rx="18.775000" width="100.966660" height="100.966667" transform="translate(93.567383 -6.290649) rotate(10.000000)" fill="#D9B6FF" fill-opacity="1.000000"/>
			<path id="6" d="M141.66 50.6Q139.92 49.53 137.76 49.15Q134.23 48.53 131.63 49.8Q131.34 49.95 131.07 50.11Q131.82 47.34 133.62 45.97Q133.84 45.81 134.08 45.66Q134.42 45.45 134.78 45.29Q136.73 44.4 139.29 44.85Q142.42 45.4 144.2 47.2L148.09 42.02Q146.74 40.76 144.67 39.86Q142.61 38.96 140.21 38.53Q135.77 37.75 132.09 38.96Q130.62 39.45 129.33 40.24Q127.42 41.43 125.94 43.3Q123.48 46.43 122.63 51.22Q121.5 57.59 124.04 61.69Q124.16 61.88 124.29 62.07Q124.87 62.92 125.59 63.65Q128.37 66.45 133.13 67.29Q136.22 67.83 138.92 67.1Q140.79 66.59 142.24 65.52Q142.9 65.04 143.47 64.44Q143.98 63.91 144.39 63.3Q145.46 61.73 145.82 59.68Q146.16 57.75 145.74 56.02Q145.59 55.41 145.34 54.83Q144.96 53.9 144.38 53.11Q143.57 51.97 142.39 51.1Q142.03 50.84 141.66 50.6ZM136.06 61.36Q135 61.81 133.65 61.58Q132.07 61.3 131.19 60.36Q131.07 60.23 130.97 60.1Q130.64 59.65 130.47 59.16Q130.19 58.34 130.36 57.36Q130.54 56.35 131.12 55.66Q131.44 55.27 131.89 54.99Q132.15 54.82 132.43 54.7Q133.5 54.25 134.87 54.49Q136.31 54.75 137.17 55.6Q137.33 55.76 137.47 55.94Q137.77 56.32 137.93 56.75Q138.27 57.62 138.08 58.68Q137.88 59.82 137.22 60.55Q136.93 60.86 136.56 61.1Q136.31 61.25 136.06 61.36Z" fill="#FFFFFF" fill-opacity="1.000000" fill-rule="evenodd"/>
			<path id="6" d="M137.76 49.15Q140.39 49.61 142.39 51.1Q144.4 52.58 145.34 54.83Q146.28 57.08 145.82 59.68Q145.32 62.52 143.47 64.44Q141.63 66.36 138.92 67.1Q136.22 67.83 133.13 67.29Q127.14 66.23 124.29 62.07Q121.45 57.89 122.63 51.22Q123.48 46.43 125.94 43.3Q128.42 40.17 132.09 38.96Q135.77 37.75 140.21 38.53Q142.61 38.96 144.67 39.86Q146.74 40.76 148.09 42.02L144.2 47.2Q142.42 45.4 139.29 44.85Q136.26 44.32 134.08 45.66Q131.91 47.01 131.07 50.11Q133.83 48.46 137.76 49.15ZM133.65 61.58Q135.33 61.87 136.56 61.1Q137.79 60.32 138.08 58.68Q138.36 57.08 137.47 55.94Q136.59 54.8 134.87 54.49Q133.15 54.19 131.89 54.99Q130.65 55.77 130.36 57.36Q130.09 58.92 130.97 60.1Q131.86 61.26 133.65 61.58Z" stroke="#202027" stroke-opacity="1.000000" stroke-width="0.634167"/>
			<rect id="Frame 2043683125" rx="18.775000" width="100.966660" height="100.966667" transform="translate(93.567383 -6.290649) rotate(10.000000)" stroke="#202027" stroke-opacity="1.000000" stroke-width="0.500000"/>
			<rect id="Frame 2043683126" rx="18.775000" width="100.966660" height="100.966667" transform="translate(201.063477 12.663940) rotate(10.000000)" fill="#D9B6FF" fill-opacity="1.000000"/>
			<path id="11" d="M236.56 84.95L241.51 56.98L228.41 54.67L227.32 60.78L232.51 61.69L228.64 83.56L236.56 84.95ZM252.74 87.81L257.7 59.83L244.59 57.52L243.51 63.63L248.7 64.55L244.83 86.41L252.74 87.81Z" fill="#FFFFFF" fill-opacity="1.000000" fill-rule="evenodd"/>
			<path id="11" d="M241.51 56.98L236.56 84.95L228.64 83.56L232.51 61.69L227.32 60.78L228.41 54.67L241.51 56.98ZM257.7 59.83L252.74 87.81L244.83 86.41L248.7 64.55L243.51 63.63L244.59 57.52L257.7 59.83Z" stroke="#202027" stroke-opacity="1.000000" stroke-width="0.634167"/>
			<rect id="Frame 2043683126" rx="18.775000" width="100.966660" height="100.966667" transform="translate(201.063477 12.663940) rotate(10.000000)" stroke="#202027" stroke-opacity="1.000000" stroke-width="0.500000"/>
			<rect id="Frame 2043683127" rx="18.775000" width="100.966660" height="100.966667" transform="translate(308.560547 31.618530) rotate(10.000000)" fill="#D9B6FF" fill-opacity="1.000000"/>
			<path id="48" d="M374.29 96.87Q373.54 95.05 371.83 93.6Q373.16 92.98 374.1 91.98Q374.3 91.78 374.48 91.55Q374.71 91.26 374.9 90.94Q375.58 89.85 375.82 88.49Q376.09 86.99 375.78 85.61Q375.59 84.75 375.18 83.95Q375.17 83.92 375.15 83.9Q374.08 81.82 371.75 80.4Q369.39 78.94 366.12 78.37Q362.84 77.79 360.12 78.35Q357.45 78.89 355.72 80.46Q355.7 80.49 355.67 80.51Q355.02 81.11 354.56 81.84Q353.79 83.03 353.52 84.56Q353.28 85.92 353.54 87.18Q353.61 87.54 353.73 87.89Q353.82 88.17 353.93 88.43Q354.47 89.68 355.51 90.72Q353.4 91.5 352.07 92.95Q351.78 93.27 351.53 93.63Q350.66 94.88 350.37 96.53Q350.07 98.19 350.43 99.71Q350.63 100.6 351.06 101.44Q352.23 103.7 354.79 105.27Q357.36 106.83 360.96 107.46Q364.56 108.1 367.5 107.51Q370.46 106.91 372.32 105.19Q373.03 104.54 373.54 103.75Q374.38 102.46 374.67 100.81Q374.96 99.19 374.58 97.73Q374.46 97.3 374.29 96.87ZM343.87 98.35L348.02 99.08L349.13 92.81L344.98 92.08L345.82 87.32L338.34 86.01L337.5 90.76L331.82 89.76L346.11 75.42L337.92 73.98L322.28 89.23L321.36 94.38L336.15 96.99L335.2 102.35L342.92 103.71L343.87 98.35ZM362.84 84.16Q363.82 83.7 365.13 83.93Q366.57 84.18 367.34 85.04Q367.39 85.09 367.43 85.14Q367.66 85.42 367.8 85.74Q368.14 86.49 367.96 87.48Q367.8 88.38 367.28 88.95Q367.02 89.24 366.67 89.45Q366.61 89.49 366.55 89.52Q365.53 90.05 364.09 89.8Q362.64 89.55 361.88 88.68Q361.84 88.64 361.81 88.59Q361.57 88.3 361.43 87.96Q361.12 87.23 361.29 86.3Q361.46 85.32 362.04 84.72Q362.28 84.47 362.59 84.28Q362.71 84.21 362.84 84.16ZM365.17 101.51Q363.87 102.25 361.94 101.91Q360.02 101.57 359.05 100.43Q358.66 99.98 358.48 99.46Q358.19 98.66 358.36 97.7Q358.54 96.71 359.1 96.05Q359.45 95.64 359.95 95.36L359.95 95.35Q361.26 94.61 363.18 94.95Q365.1 95.29 366.06 96.44L366.06 96.44Q366.45 96.88 366.63 97.4Q366.93 98.2 366.76 99.18Q366.59 100.12 366.06 100.77Q365.69 101.21 365.17 101.51Z" fill="#FFFFFF" fill-opacity="1.000000" fill-rule="evenodd"/>
			<path id="48" d="M348.02 99.08L343.87 98.35L342.92 103.71L335.2 102.35L336.15 96.99L321.36 94.38L322.28 89.23L337.92 73.98L346.11 75.42L331.82 89.76L337.5 90.76L338.34 86.01L345.82 87.32L344.98 92.08L349.13 92.81L348.02 99.08ZM371.83 93.6Q373.54 95.05 374.29 96.87Q375.04 98.7 374.67 100.81Q374.2 103.46 372.32 105.19Q370.46 106.91 367.5 107.51Q364.56 108.1 360.96 107.46Q357.36 106.83 354.79 105.27Q352.23 103.7 351.06 101.44Q349.9 99.17 350.37 96.53Q350.74 94.41 352.07 92.95Q353.4 91.5 355.51 90.72Q354.26 89.47 353.73 87.89Q353.21 86.31 353.52 84.56Q353.95 82.12 355.67 80.51Q357.41 78.89 360.12 78.35Q362.84 77.79 366.12 78.37Q369.39 78.94 371.75 80.4Q374.11 81.84 375.18 83.95Q376.26 86.05 375.82 88.49Q375.51 90.25 374.48 91.55Q373.44 92.85 371.83 93.6ZM365.13 83.93Q363.66 83.67 362.59 84.28Q361.54 84.9 361.29 86.3Q361.05 87.66 361.81 88.59Q362.57 89.53 364.09 89.8Q365.61 90.07 366.67 89.45Q367.72 88.83 367.96 87.48Q368.21 86.08 367.43 85.14Q366.65 84.2 365.13 83.93ZM361.94 101.91Q363.87 102.25 365.17 101.51Q366.47 100.77 366.76 99.18Q367.04 97.58 366.06 96.44Q365.1 95.29 363.18 94.95Q361.25 94.61 359.95 95.36Q358.65 96.1 358.36 97.7Q358.08 99.29 359.05 100.43Q360.02 101.57 361.94 101.91Z" stroke="#202027" stroke-opacity="1.000000" stroke-width="0.634167"/>
			<rect id="Frame 2043683127" rx="18.775000" width="100.966660" height="100.966667" transform="translate(308.560547 31.618530) rotate(10.000000)" stroke="#202027" stroke-opacity="1.000000" stroke-width="0.500000"/>
			<rect id="Frame 2043683128" rx="18.775000" width="100.966660" height="100.966667" transform="translate(416.057617 50.573120) rotate(10.000000)" fill="#D9B6FF" fill-opacity="1.000000"/>
			<path id="48" d="M481.79 115.83Q481.04 114.01 479.33 112.56Q480.66 111.93 481.6 110.94Q481.8 110.73 481.97 110.51Q482.21 110.21 482.4 109.9Q483.08 108.81 483.32 107.44Q483.59 105.94 483.28 104.57Q483.09 103.71 482.68 102.9Q482.66 102.88 482.65 102.85Q481.58 100.78 479.25 99.35Q476.89 97.9 473.61 97.32Q470.33 96.74 467.62 97.3Q464.94 97.84 463.22 99.42Q463.19 99.44 463.17 99.46Q462.52 100.07 462.06 100.79Q461.28 101.99 461.01 103.51Q460.77 104.87 461.03 106.13Q461.11 106.49 461.23 106.85Q461.32 107.12 461.43 107.38Q461.97 108.64 463.01 109.68Q460.9 110.45 459.57 111.91Q459.27 112.23 459.03 112.58Q458.16 113.83 457.87 115.48Q457.57 117.15 457.92 118.67Q458.13 119.56 458.56 120.39Q459.73 122.65 462.29 124.22Q464.86 125.78 468.46 126.42Q472.06 127.05 475 126.46Q477.95 125.87 479.82 124.14Q480.53 123.49 481.03 122.71Q481.87 121.42 482.16 119.77Q482.45 118.14 482.08 116.69Q481.96 116.25 481.79 115.83ZM451.36 117.3L455.52 118.04L456.63 111.76L452.47 111.03L453.32 106.28L445.84 104.96L445 109.71L439.32 108.71L453.6 94.38L445.42 92.93L429.77 108.19L428.86 113.34L443.64 115.94L442.7 121.3L450.41 122.66L451.36 117.3ZM470.33 103.11Q471.32 102.65 472.63 102.88Q474.06 103.14 474.84 103.99Q474.88 104.04 474.93 104.09Q475.16 104.37 475.3 104.69Q475.63 105.45 475.46 106.43Q475.3 107.33 474.78 107.91Q474.52 108.2 474.16 108.41Q474.11 108.44 474.05 108.47Q473.02 109.01 471.59 108.76Q470.14 108.5 469.38 107.64Q469.34 107.59 469.3 107.55Q469.07 107.25 468.93 106.92Q468.62 106.18 468.79 105.25Q468.96 104.27 469.53 103.67Q469.78 103.42 470.09 103.24Q470.21 103.17 470.33 103.11ZM472.66 120.47Q471.36 121.2 469.44 120.86Q467.52 120.53 466.54 119.39Q466.16 118.93 465.98 118.41Q465.69 117.61 465.86 116.65Q466.04 115.66 466.6 115.01Q466.95 114.6 467.44 114.31L467.45 114.31Q468.76 113.57 470.67 113.91Q472.6 114.25 473.56 115.39L473.56 115.39Q473.94 115.84 474.13 116.35Q474.43 117.16 474.25 118.13Q474.09 119.08 473.55 119.73Q473.19 120.17 472.66 120.47Z" fill="#FFFFFF" fill-opacity="1.000000" fill-rule="evenodd"/>
			<path id="48" d="M455.52 118.04L451.36 117.3L450.41 122.66L442.7 121.3L443.64 115.94L428.86 113.34L429.77 108.19L445.42 92.93L453.6 94.38L439.32 108.71L445 109.71L445.84 104.96L453.32 106.28L452.47 111.03L456.63 111.76L455.52 118.04ZM479.33 112.56Q481.04 114.01 481.79 115.83Q482.54 117.65 482.16 119.77Q481.7 122.41 479.82 124.14Q477.95 125.87 475 126.46Q472.06 127.05 468.46 126.42Q464.86 125.78 462.29 124.22Q459.73 122.65 458.56 120.39Q457.4 118.13 457.87 115.48Q458.24 113.37 459.57 111.91Q460.9 110.45 463.01 109.68Q461.75 108.42 461.23 106.85Q460.7 105.27 461.01 103.51Q461.45 101.07 463.17 99.46Q464.9 97.85 467.62 97.3Q470.33 96.74 473.61 97.32Q476.89 97.9 479.25 99.35Q481.61 100.79 482.68 102.9Q483.75 105.01 483.32 107.44Q483.01 109.2 481.97 110.51Q480.94 111.8 479.33 112.56ZM472.63 102.88Q471.15 102.62 470.09 103.24Q469.03 103.86 468.79 105.25Q468.55 106.61 469.3 107.55Q470.06 108.49 471.59 108.76Q473.11 109.02 474.16 108.41Q475.22 107.79 475.46 106.43Q475.71 105.04 474.93 104.09Q474.15 103.15 472.63 102.88ZM469.44 120.86Q471.36 121.2 472.66 120.47Q473.97 119.72 474.25 118.13Q474.54 116.53 473.56 115.39Q472.6 114.25 470.67 113.91Q468.75 113.57 467.44 114.31Q466.14 115.05 465.86 116.65Q465.58 118.24 466.54 119.39Q467.52 120.53 469.44 120.86Z" stroke="#202027" stroke-opacity="1.000000" stroke-width="0.634167"/>
			<rect id="Frame 2043683128" rx="18.775000" width="100.966660" height="100.966667" transform="translate(416.057617 50.573120) rotate(10.000000)" stroke="#202027" stroke-opacity="1.000000" stroke-width="0.500000"/>
			<rect id="Frame 2043683073" rx="18.775000" width="100.966660" height="100.966667" transform="translate(-32.871094 82.174194) rotate(10.000000)" fill="#D9B6FF" fill-opacity="1.000000"/>
			<path id="66" d="M2.25 136.78Q0.51 135.71 -1.65 135.33Q-5.18 134.7 -7.78 135.98Q-8.07 136.12 -8.34 136.29Q-7.59 133.52 -5.78 132.15Q-5.57 131.99 -5.33 131.84Q-4.99 131.63 -4.63 131.46Q-2.68 130.58 -0.12 131.03Q3.01 131.58 4.79 133.37L8.68 128.2Q7.33 126.94 5.27 126.04Q3.2 125.13 0.8 124.71Q-3.64 123.93 -7.31 125.14Q-8.79 125.63 -10.08 126.42Q-11.99 127.61 -13.47 129.48Q-15.93 132.61 -16.78 137.4Q-17.91 143.77 -15.37 147.86Q-15.25 148.06 -15.12 148.25Q-14.53 149.1 -13.82 149.82Q-11.04 152.63 -6.27 153.47Q-3.19 154.01 -0.48 153.28Q1.38 152.77 2.83 151.7Q3.49 151.22 4.06 150.62Q4.58 150.09 4.99 149.48Q6.05 147.91 6.42 145.85Q6.76 143.93 6.33 142.2Q6.18 141.59 5.94 141.01Q5.55 140.08 4.98 139.28Q4.16 138.15 2.98 137.28Q2.63 137.01 2.25 136.78ZM28.19 141.35Q26.45 140.28 24.29 139.9Q20.76 139.28 18.16 140.56Q17.88 140.7 17.6 140.86Q18.35 138.1 20.16 136.73Q20.38 136.56 20.61 136.41Q20.95 136.2 21.31 136.04Q23.27 135.15 25.82 135.6Q28.95 136.15 30.73 137.95L34.62 132.78Q33.27 131.51 31.21 130.62Q29.14 129.71 26.74 129.28Q22.3 128.5 18.63 129.72Q17.15 130.2 15.86 131Q13.96 132.18 12.47 134.05Q10.01 137.18 9.16 141.97Q8.03 148.34 10.57 152.44Q10.69 152.63 10.82 152.82Q11.41 153.67 12.12 154.4Q14.9 157.2 19.67 158.04Q22.75 158.59 25.46 157.85Q27.32 157.35 28.77 156.28Q29.43 155.79 30 155.2Q30.52 154.66 30.93 154.06Q31.99 152.48 32.36 150.43Q32.7 148.5 32.27 146.77Q32.12 146.17 31.88 145.58Q31.49 144.66 30.92 143.86Q30.11 142.72 28.92 141.85Q28.57 141.59 28.19 141.35ZM-3.35 147.54Q-4.41 147.99 -5.75 147.75Q-7.34 147.47 -8.22 146.53Q-8.34 146.41 -8.44 146.27Q-8.77 145.83 -8.94 145.34Q-9.22 144.51 -9.04 143.54Q-8.86 142.52 -8.29 141.84Q-7.97 141.45 -7.52 141.16Q-7.26 141 -6.98 140.88Q-5.9 140.43 -4.54 140.67Q-3.1 140.93 -2.24 141.78Q-2.08 141.94 -1.94 142.12Q-1.64 142.5 -1.47 142.93Q-1.14 143.79 -1.33 144.86Q-1.53 146 -2.19 146.73Q-2.48 147.04 -2.85 147.28Q-3.09 147.43 -3.35 147.54ZM22.59 152.11Q21.53 152.57 20.19 152.33Q18.6 152.05 17.72 151.11Q17.6 150.98 17.5 150.85Q17.17 150.41 17 149.91Q16.72 149.09 16.9 148.12Q17.08 147.1 17.65 146.41Q17.97 146.02 18.42 145.74Q18.68 145.57 18.96 145.46Q20.04 145.01 21.4 145.25Q22.84 145.5 23.7 146.35Q23.86 146.51 24 146.69Q24.3 147.07 24.47 147.5Q24.8 148.37 24.61 149.44Q24.41 150.58 23.75 151.3Q23.46 151.62 23.09 151.85Q22.85 152 22.59 152.11Z" fill="#FFFFFF" fill-opacity="1.000000" fill-rule="evenodd"/>
			<path id="66" d="M-1.65 135.33Q0.98 135.79 2.98 137.28Q5 138.76 5.94 141.01Q6.88 143.26 6.42 145.85Q5.91 148.69 4.06 150.62Q2.22 152.54 -0.48 153.28Q-3.19 154.01 -6.27 153.47Q-12.27 152.41 -15.12 148.25Q-17.96 144.07 -16.78 137.4Q-15.93 132.61 -13.47 129.48Q-10.99 126.34 -7.31 125.14Q-3.64 123.93 0.8 124.71Q3.2 125.13 5.27 126.04Q7.33 126.94 8.68 128.2L4.79 133.37Q3.01 131.58 -0.12 131.03Q-3.15 130.49 -5.33 131.84Q-7.5 133.19 -8.34 136.29Q-5.57 134.63 -1.65 135.33ZM-5.75 147.75Q-4.08 148.05 -2.85 147.28Q-1.62 146.5 -1.33 144.86Q-1.04 143.26 -1.94 142.12Q-2.82 140.98 -4.54 140.67Q-6.26 140.37 -7.52 141.16Q-8.76 141.95 -9.04 143.54Q-9.32 145.1 -8.44 146.27Q-7.55 147.44 -5.75 147.75ZM24.29 139.9Q26.92 140.36 28.92 141.85Q30.94 143.34 31.88 145.58Q32.82 147.83 32.36 150.43Q31.85 153.27 30 155.2Q28.16 157.11 25.46 157.85Q22.75 158.59 19.67 158.04Q13.68 156.99 10.82 152.82Q7.98 148.64 9.16 141.97Q10.01 137.18 12.47 134.05Q14.95 130.92 18.63 129.72Q22.3 128.5 26.74 129.28Q29.14 129.71 31.21 130.62Q33.27 131.51 34.62 132.78L30.73 137.95Q28.95 136.15 25.82 135.6Q22.79 135.07 20.61 136.41Q18.44 137.76 17.6 140.86Q20.37 139.21 24.29 139.9ZM20.19 152.33Q21.86 152.62 23.09 151.85Q24.32 151.07 24.61 149.44Q24.9 147.84 24 146.69Q23.12 145.55 21.4 145.25Q19.68 144.94 18.42 145.74Q17.18 146.52 16.9 148.12Q16.62 149.68 17.5 150.85Q18.39 152.01 20.19 152.33Z" stroke="#202027" stroke-opacity="1.000000" stroke-width="0.634167"/>
			<rect id="Frame 2043683073" rx="18.775000" width="100.966660" height="100.966667" transform="translate(-32.871094 82.174194) rotate(10.000000)" stroke="#202027" stroke-opacity="1.000000" stroke-width="0.500000"/>
			<rect id="Frame 2043683064" rx="18.775000" width="100.966660" height="100.966667" transform="translate(74.625977 101.128906) rotate(10.000000)" fill="#D9B6FF" fill-opacity="1.000000"/>
			<path id="2" d="M123.97 175.86L125.08 169.59L114.29 167.68L120.43 163.73Q123.68 161.67 125.02 159.82Q125.59 159.03 126 158.15Q126.52 156.99 126.75 155.7Q127.07 153.93 126.67 152.34Q126.49 151.64 126.17 150.96Q126.03 150.67 125.87 150.38Q124.83 148.58 122.86 147.31Q120.59 145.83 117.39 145.27Q113.36 144.56 110.12 145.6Q107.9 146.31 106.21 147.67Q105.43 148.3 104.76 149.06L110.07 153.38Q110.85 152.52 111.82 152.04Q112.18 151.87 112.56 151.74Q112.94 151.61 113.34 151.54Q114.4 151.34 115.54 151.54Q117.3 151.85 118.08 152.78Q118.33 153.06 118.47 153.39Q118.79 154.11 118.62 155.06Q118.62 155.09 118.61 155.13Q118.42 156.12 117.74 157.02Q117.05 157.95 115.27 159.12L103.06 167.06L102.19 172.02L123.97 175.86Z" fill="#FFFFFF" fill-opacity="1.000000" fill-rule="evenodd"/>
			<path id="2" d="M125.08 169.59L123.97 175.86L102.19 172.02L103.06 167.06L115.27 159.12Q117.05 157.95 117.74 157.02Q118.44 156.09 118.62 155.06Q118.87 153.69 118.08 152.78Q117.3 151.85 115.54 151.54Q113.98 151.27 112.56 151.74Q111.14 152.21 110.07 153.38L104.76 149.06Q106.88 146.64 110.12 145.6Q113.36 144.56 117.39 145.27Q120.59 145.83 122.86 147.31Q125.14 148.78 126.17 150.96Q127.2 153.15 126.75 155.7Q126.35 157.98 125.02 159.82Q123.68 161.67 120.43 163.73L114.29 167.68L125.08 169.59Z" stroke="#202027" stroke-opacity="1.000000" stroke-width="0.634167"/>
			<rect id="Frame 2043683064" rx="18.775000" width="100.966660" height="100.966667" transform="translate(74.625977 101.128906) rotate(10.000000)" stroke="#202027" stroke-opacity="1.000000" stroke-width="0.500000"/>
			<rect id="Frame 2043683075" rx="18.775000" width="100.966660" height="100.966667" transform="translate(182.123047 120.083496) rotate(10.000000)" fill="#D9B6FF" fill-opacity="1.000000"/>
			<path id="11" d="M217.62 192.37L222.57 164.4L209.46 162.09L208.38 168.2L213.57 169.11L209.7 190.98L217.62 192.37ZM233.8 195.23L238.76 167.25L225.65 164.94L224.57 171.05L229.76 171.97L225.89 193.83L233.8 195.23Z" fill="#FFFFFF" fill-opacity="1.000000" fill-rule="evenodd"/>
			<path id="11" d="M222.57 164.4L217.62 192.37L209.7 190.98L213.57 169.11L208.38 168.2L209.46 162.09L222.57 164.4ZM238.76 167.25L233.8 195.23L225.89 193.83L229.76 171.97L224.57 171.05L225.65 164.94L238.76 167.25Z" stroke="#202027" stroke-opacity="1.000000" stroke-width="0.634167"/>
			<rect id="Frame 2043683075" rx="18.775000" width="100.966660" height="100.966667" transform="translate(182.123047 120.083496) rotate(10.000000)" stroke="#202027" stroke-opacity="1.000000" stroke-width="0.500000"/>
			<rect id="Frame 2043683066" rx="18.775000" width="100.966660" height="100.966667" transform="translate(289.620117 139.038086) rotate(10.000000)" fill="#D9B6FF" fill-opacity="1.000000"/>
			<path id="8" d="M341.16 201.79Q340.41 199.97 338.7 198.52Q340.03 197.9 340.97 196.9Q341.17 196.69 341.35 196.47Q341.58 196.18 341.77 195.86Q342.45 194.77 342.69 193.41Q342.96 191.9 342.65 190.53Q342.46 189.67 342.05 188.87Q342.04 188.84 342.02 188.81Q340.95 186.74 338.62 185.31Q336.26 183.86 332.99 183.28Q329.71 182.71 326.99 183.26Q324.32 183.8 322.59 185.38Q322.57 185.4 322.54 185.43Q321.89 186.03 321.43 186.75Q320.66 187.95 320.39 189.47Q320.15 190.84 320.41 192.09Q320.48 192.46 320.6 192.81Q320.69 193.08 320.8 193.34Q321.34 194.6 322.38 195.64Q320.27 196.42 318.94 197.87Q318.65 198.19 318.4 198.55Q317.53 199.8 317.24 201.45Q316.94 203.11 317.29 204.63Q317.5 205.52 317.93 206.36Q319.1 208.62 321.66 210.18Q324.23 211.74 327.83 212.38Q331.43 213.01 334.37 212.43Q337.33 211.83 339.19 210.11Q339.9 209.45 340.41 208.67Q341.25 207.38 341.54 205.73Q341.83 204.1 341.45 202.65Q341.33 202.21 341.16 201.79ZM329.71 189.07Q330.69 188.62 332 188.85Q333.44 189.1 334.21 189.95Q334.26 190 334.3 190.06Q334.53 190.34 334.67 190.65Q335.01 191.41 334.83 192.39Q334.67 193.3 334.15 193.87Q333.89 194.16 333.54 194.37Q333.48 194.4 333.42 194.44Q332.4 194.97 330.96 194.72Q329.51 194.46 328.75 193.6Q328.71 193.56 328.68 193.51Q328.44 193.22 328.3 192.88Q327.99 192.15 328.16 191.22Q328.33 190.24 328.91 189.64Q329.15 189.39 329.46 189.2Q329.58 189.13 329.71 189.07ZM332.04 206.43Q330.74 207.17 328.81 206.83Q326.89 206.49 325.92 205.35Q325.53 204.9 325.35 204.37Q325.06 203.57 325.23 202.61Q325.41 201.63 325.97 200.97Q326.32 200.56 326.82 200.28Q326.82 200.27 326.82 200.27Q328.13 199.53 330.05 199.87Q331.97 200.21 332.93 201.35L332.93 201.36Q333.32 201.8 333.5 202.32Q333.8 203.12 333.63 204.09Q333.46 205.04 332.93 205.69Q332.56 206.13 332.04 206.43Z" fill="#FFFFFF" fill-opacity="1.000000" fill-rule="evenodd"/>
			<path id="8" d="M338.7 198.52Q340.41 199.97 341.16 201.79Q341.91 203.61 341.54 205.73Q341.07 208.37 339.19 210.11Q337.33 211.83 334.37 212.43Q331.43 213.01 327.83 212.38Q324.23 211.74 321.66 210.18Q319.1 208.62 317.93 206.36Q316.77 204.09 317.24 201.45Q317.61 199.33 318.94 197.87Q320.27 196.42 322.38 195.64Q321.13 194.38 320.6 192.81Q320.07 191.23 320.39 189.47Q320.82 187.03 322.54 185.43Q324.28 183.81 326.99 183.26Q329.71 182.71 332.99 183.28Q336.26 183.86 338.62 185.31Q340.98 186.76 342.05 188.87Q343.13 190.97 342.69 193.41Q342.38 195.16 341.35 196.47Q340.31 197.77 338.7 198.52ZM332 188.85Q330.53 188.59 329.46 189.2Q328.41 189.82 328.16 191.22Q327.92 192.57 328.68 193.51Q329.44 194.45 330.96 194.72Q332.48 194.99 333.54 194.37Q334.59 193.75 334.83 192.39Q335.08 191 334.3 190.06Q333.52 189.11 332 188.85ZM328.81 206.83Q330.74 207.17 332.04 206.43Q333.34 205.68 333.63 204.09Q333.91 202.49 332.93 201.36Q331.97 200.21 330.05 199.87Q328.12 199.53 326.82 200.28Q325.52 201.01 325.23 202.61Q324.95 204.2 325.92 205.35Q326.89 206.49 328.81 206.83Z" stroke="#202027" stroke-opacity="1.000000" stroke-width="0.634167"/>
			<rect id="Frame 2043683066" rx="18.775000" width="100.966660" height="100.966667" transform="translate(289.620117 139.038086) rotate(10.000000)" stroke="#202027" stroke-opacity="1.000000" stroke-width="0.500000"/>
			<rect id="Frame 2043683067" rx="18.775000" width="100.966660" height="100.966667" transform="translate(397.116211 157.992676) rotate(10.000000)" fill="#D9B6FF" fill-opacity="1.000000"/>
			<path id="36" d="M457.26 217.01Q455.52 215.94 453.36 215.56Q449.83 214.93 447.23 216.21Q446.94 216.35 446.67 216.52Q447.42 213.75 449.22 212.38Q449.44 212.22 449.68 212.07Q450.02 211.86 450.38 211.7Q452.33 210.81 454.89 211.26Q458.02 211.81 459.8 213.6L463.69 208.43Q462.34 207.17 460.27 206.27Q458.21 205.36 455.81 204.94Q451.37 204.16 447.69 205.37Q446.22 205.86 444.93 206.65Q443.02 207.84 441.54 209.71Q439.08 212.84 438.23 217.63Q437.1 224 439.64 228.09Q439.76 228.29 439.89 228.48Q440.47 229.33 441.19 230.05Q443.97 232.86 448.73 233.7Q451.82 234.24 454.52 233.51Q456.39 233 457.84 231.93Q458.5 231.45 459.07 230.85Q459.58 230.32 459.99 229.71Q461.06 228.14 461.42 226.09Q461.77 224.16 461.34 222.43Q461.19 221.82 460.94 221.24Q460.56 220.31 459.99 219.52Q459.17 218.38 457.99 217.51Q457.63 217.24 457.26 217.01ZM433.88 216.08Q432.4 213.66 429.11 212.36L436.01 207.15L436.89 202.19L416.66 198.62L415.58 204.73L426.61 206.68L420.66 211.19L419.78 216.19L423.09 216.77Q426.14 217.31 426.77 218.84Q427.03 219.46 426.89 220.25Q426.77 220.92 426.4 221.39Q426 221.91 425.3 222.19Q423.97 222.74 421.93 222.38Q419.93 222.03 417.98 221.07Q416.02 220.1 414.59 218.69L410.66 224.15Q412.54 225.84 415.31 227.07Q417.15 227.88 419.06 228.38Q420.04 228.64 421.04 228.81Q425.07 229.53 428.04 228.71Q431.02 227.9 432.73 226.02Q433.64 225.01 434.19 223.84Q434.67 222.81 434.88 221.66Q435.22 219.72 434.74 218.02Q434.47 217.05 433.93 216.16Q433.91 216.12 433.88 216.08ZM451.66 227.77Q450.6 228.22 449.25 227.98Q447.67 227.7 446.79 226.76Q446.67 226.64 446.57 226.5Q446.24 226.06 446.07 225.57Q445.79 224.74 445.96 223.77Q446.14 222.76 446.72 222.07Q447.04 221.68 447.49 221.39Q447.75 221.23 448.03 221.11Q449.11 220.66 450.47 220.9Q451.91 221.16 452.77 222.01Q452.93 222.17 453.07 222.35Q453.37 222.73 453.54 223.16Q453.87 224.03 453.68 225.09Q453.48 226.23 452.82 226.96Q452.53 227.27 452.16 227.51Q451.92 227.66 451.66 227.77Z" fill="#FFFFFF" fill-opacity="1.000000" fill-rule="evenodd"/>
			<path id="36" d="M429.11 212.36Q432.46 213.68 433.93 216.16Q435.42 218.62 434.88 221.66Q434.44 224.13 432.73 226.02Q431.02 227.9 428.04 228.71Q425.07 229.53 421.04 228.81Q418.08 228.29 415.31 227.07Q412.54 225.84 410.66 224.15L414.59 218.69Q416.02 220.1 417.98 221.07Q419.93 222.03 421.93 222.38Q423.97 222.74 425.3 222.19Q426.64 221.64 426.89 220.25Q427.37 217.52 423.09 216.77L419.78 216.19L420.66 211.19L426.61 206.68L415.58 204.73L416.66 198.62L436.89 202.19L436.01 207.15L429.11 212.36ZM453.36 215.56Q455.99 216.02 457.99 217.51Q460 218.99 460.94 221.24Q461.88 223.49 461.42 226.09Q460.92 228.92 459.07 230.85Q457.23 232.77 454.52 233.51Q451.82 234.24 448.73 233.7Q442.74 232.64 439.89 228.48Q437.05 224.3 438.23 217.63Q439.08 212.84 441.54 209.71Q444.02 206.58 447.69 205.37Q451.37 204.16 455.81 204.94Q458.21 205.36 460.27 206.27Q462.34 207.17 463.69 208.43L459.8 213.6Q458.02 211.81 454.89 211.26Q451.86 210.72 449.68 212.07Q447.51 213.42 446.67 216.52Q449.43 214.87 453.36 215.56ZM449.25 227.98Q450.93 228.28 452.16 227.51Q453.39 226.73 453.68 225.09Q453.96 223.49 453.07 222.35Q452.19 221.21 450.47 220.9Q448.75 220.6 447.49 221.39Q446.25 222.18 445.96 223.77Q445.69 225.33 446.57 226.5Q447.46 227.67 449.25 227.98Z" stroke="#202027" stroke-opacity="1.000000" stroke-width="0.634167"/>
			<rect id="Frame 2043683067" rx="18.775000" width="100.966660" height="100.966667" transform="translate(397.116211 157.992676) rotate(10.000000)" stroke="#202027" stroke-opacity="1.000000" stroke-width="0.500000"/>
			<rect id="Frame 2043683074" rx="18.775000" width="100.966660" height="100.966667" transform="translate(-51.811523 189.593750) rotate(10.000000)" fill="#D9B6FF" fill-opacity="1.000000"/>
			<path id="9" d="M-2.18 237.31Q-4.97 234.45 -9.8 233.6Q-12.74 233.08 -15.37 233.76Q-15.46 233.78 -15.55 233.81Q-17.36 234.3 -18.8 235.34Q-19.5 235.84 -20.1 236.47Q-20.6 237 -21.01 237.58Q-22.08 239.16 -22.44 241.22Q-22.79 243.18 -22.35 244.94Q-22.2 245.52 -21.97 246.08Q-21.59 246.98 -21.03 247.76Q-20.22 248.92 -19.02 249.8Q-18.7 250.05 -18.36 250.26Q-16.59 251.37 -14.38 251.76Q-10.89 252.38 -8.3 251.12Q-8.01 250.99 -7.74 250.83Q-8.55 253.66 -10.42 255.01Q-10.6 255.14 -10.78 255.25Q-11.12 255.46 -11.47 255.62Q-13.4 256.5 -15.92 256.06Q-19.05 255.5 -20.83 253.71L-24.71 258.87Q-23.36 260.11 -21.3 261.02Q-19.23 261.94 -16.88 262.36Q-12.44 263.14 -8.75 261.94Q-7.17 261.43 -5.82 260.57Q-4 259.41 -2.59 257.61Q-0.11 254.48 0.74 249.69Q1.87 243.33 -0.67 239.24Q-0.79 239.04 -0.93 238.84Q-1.49 238.01 -2.18 237.31ZM-9.03 246.19Q-10.11 246.66 -11.5 246.41Q-12.94 246.16 -13.8 245.32Q-13.97 245.15 -14.11 244.97Q-14.41 244.58 -14.58 244.14Q-14.9 243.28 -14.71 242.22Q-14.51 241.06 -13.83 240.33Q-13.55 240.04 -13.2 239.81Q-12.94 239.65 -12.65 239.53Q-11.61 239.1 -10.29 239.33Q-8.71 239.61 -7.84 240.54Q-7.72 240.67 -7.61 240.82Q-7.26 241.27 -7.09 241.78Q-6.83 242.59 -6.99 243.53Q-7.17 244.55 -7.75 245.24Q-8.08 245.64 -8.54 245.93Q-8.77 246.08 -9.03 246.19Z" fill="#FFFFFF" fill-opacity="1.000000" fill-rule="evenodd"/>
			<path id="9" d="M-9.8 233.6Q-3.77 234.66 -0.93 238.84Q1.92 243.01 0.74 249.69Q-0.11 254.48 -2.59 257.61Q-5.05 260.74 -8.75 261.94Q-12.44 263.14 -16.88 262.36Q-19.23 261.94 -21.3 261.02Q-23.36 260.11 -24.71 258.87L-20.83 253.71Q-19.05 255.5 -15.92 256.06Q-12.93 256.58 -10.78 255.25Q-8.62 253.92 -7.74 250.83Q-10.5 252.44 -14.38 251.76Q-17.02 251.29 -19.02 249.8Q-21.02 248.31 -21.97 246.08Q-22.91 243.83 -22.44 241.22Q-21.94 238.39 -20.1 236.47Q-18.25 234.55 -15.55 233.81Q-12.84 233.07 -9.8 233.6ZM-11.5 246.41Q-9.78 246.71 -8.54 245.93Q-7.28 245.13 -6.99 243.53Q-6.72 241.98 -7.61 240.82Q-8.49 239.65 -10.29 239.33Q-11.96 239.04 -13.2 239.81Q-14.42 240.58 -14.71 242.22Q-14.99 243.81 -14.11 244.97Q-13.22 246.11 -11.5 246.41Z" stroke="#202027" stroke-opacity="1.000000" stroke-width="0.634167"/>
			<rect id="Frame 2043683074" rx="18.775000" width="100.966660" height="100.966667" transform="translate(-51.811523 189.593750) rotate(10.000000)" stroke="#202027" stroke-opacity="1.000000" stroke-width="0.500000"/>
			<rect id="Frame 2043683068" rx="18.775000" width="100.966660" height="100.966667" transform="translate(55.684570 208.548340) rotate(10.000000)" fill="#D9B6FF" fill-opacity="1.000000"/>
			<path id="4" d="M104.56 277.67L108.72 278.41L109.83 272.13L105.67 271.4L106.51 266.65L99.04 265.33L98.2 270.08L92.52 269.08L106.8 254.74L98.61 253.3L82.97 268.55L82.06 273.7L96.84 276.31L95.89 281.67L103.61 283.03L104.56 277.67Z" fill="#FFFFFF" fill-opacity="1.000000" fill-rule="evenodd"/>
			<path id="4" d="M108.72 278.41L104.56 277.67L103.61 283.03L95.89 281.67L96.84 276.31L82.06 273.7L82.97 268.55L98.61 253.3L106.8 254.74L92.52 269.08L98.2 270.08L99.04 265.33L106.51 266.65L105.67 271.4L109.83 272.13L108.72 278.41Z" stroke="#202027" stroke-opacity="1.000000" stroke-width="0.634167"/>
			<rect id="Frame 2043683068" rx="18.775000" width="100.966660" height="100.966667" transform="translate(55.684570 208.548340) rotate(10.000000)" stroke="#202027" stroke-opacity="1.000000" stroke-width="0.500000"/>
			<rect id="Frame 2043683069" rx="18.775000" width="100.966660" height="100.966667" transform="translate(163.181641 227.502930) rotate(10.000000)" fill="#D9B6FF" fill-opacity="1.000000"/>
			<path id="92" d="M201 273.13Q198.22 270.28 193.38 269.43Q190.44 268.91 187.81 269.59Q187.72 269.61 187.64 269.63Q185.82 270.13 184.39 271.16Q183.69 271.67 183.08 272.3Q182.58 272.82 182.18 273.41Q181.1 274.99 180.74 277.05Q180.39 279.01 180.84 280.77Q180.98 281.35 181.22 281.9Q181.6 282.81 182.15 283.59Q182.97 284.74 184.16 285.63Q184.48 285.87 184.83 286.09Q186.59 287.2 188.8 287.59Q192.3 288.2 194.89 286.95Q195.17 286.81 195.44 286.65Q194.64 289.48 192.76 290.84Q192.59 290.96 192.4 291.08Q192.07 291.29 191.71 291.45Q189.78 292.33 187.26 291.88Q184.14 291.33 182.35 289.54L178.48 294.7Q179.82 295.93 181.88 296.85Q183.95 297.77 186.3 298.18Q190.74 298.97 194.44 297.77Q196.01 297.25 197.36 296.39Q199.18 295.23 200.6 293.44Q203.07 290.3 203.92 285.51Q205.05 279.16 202.52 275.07Q202.39 274.86 202.25 274.66Q201.69 273.84 201 273.13ZM225.33 304.49L226.44 298.22L215.65 296.32L221.79 292.37Q225.05 290.3 226.38 288.46Q226.96 287.66 227.36 286.78Q227.89 285.63 228.12 284.34Q228.43 282.57 228.03 280.98Q227.86 280.27 227.54 279.6Q227.4 279.3 227.23 279.01Q226.2 277.21 224.23 275.94Q221.96 274.47 218.76 273.9Q214.73 273.19 211.48 274.23Q209.27 274.94 207.57 276.3Q206.8 276.93 206.13 277.69L211.43 282.01Q212.22 281.16 213.18 280.68Q213.54 280.5 213.93 280.38Q214.31 280.25 214.7 280.17Q215.77 279.98 216.91 280.18Q218.67 280.49 219.45 281.41Q219.69 281.69 219.84 282.02Q220.16 282.75 219.99 283.69Q219.98 283.73 219.98 283.77Q219.78 284.76 219.11 285.66Q218.41 286.58 216.63 287.75L204.43 295.69L203.55 300.65L225.33 304.49ZM194.15 282.01Q193.07 282.48 191.68 282.24Q190.25 281.99 189.39 281.14Q189.22 280.98 189.07 280.79Q188.77 280.4 188.61 279.96Q188.28 279.1 188.47 278.05Q188.68 276.89 189.35 276.16Q189.63 275.86 189.98 275.64Q190.25 275.47 190.53 275.36Q191.58 274.92 192.9 275.16Q194.47 275.43 195.34 276.37Q195.46 276.5 195.57 276.65Q195.92 277.1 196.09 277.61Q196.36 278.41 196.19 279.36Q196.01 280.38 195.44 281.07Q195.11 281.46 194.65 281.75Q194.41 281.9 194.15 282.01Z" fill="#FFFFFF" fill-opacity="1.000000" fill-rule="evenodd"/>
			<path id="92" d="M193.38 269.43Q199.41 270.49 202.25 274.66Q205.11 278.84 203.92 285.51Q203.07 290.3 200.6 293.44Q198.13 296.57 194.44 297.77Q190.74 298.97 186.3 298.18Q183.95 297.77 181.88 296.85Q179.82 295.93 178.48 294.7L182.35 289.54Q184.14 291.33 187.26 291.88Q190.25 292.41 192.4 291.08Q194.56 289.75 195.44 286.65Q192.68 288.27 188.8 287.59Q186.16 287.12 184.16 285.63Q182.16 284.14 181.22 281.9Q180.28 279.65 180.74 277.05Q181.24 274.22 183.08 272.3Q184.93 270.37 187.64 269.63Q190.34 268.89 193.38 269.43ZM191.68 282.24Q193.4 282.54 194.65 281.75Q195.9 280.96 196.19 279.36Q196.46 277.81 195.57 276.65Q194.69 275.47 192.9 275.16Q191.22 274.86 189.98 275.64Q188.76 276.41 188.47 278.05Q188.19 279.64 189.07 280.79Q189.97 281.94 191.68 282.24ZM226.44 298.22L225.33 304.49L203.55 300.65L204.43 295.69L216.63 287.75Q218.41 286.58 219.11 285.66Q219.81 284.72 219.99 283.69Q220.23 282.32 219.45 281.41Q218.67 280.49 216.91 280.18Q215.35 279.9 213.93 280.38Q212.51 280.84 211.43 282.01L206.13 277.69Q208.25 275.27 211.48 274.23Q214.73 273.19 218.76 273.9Q221.96 274.47 224.23 275.94Q226.51 277.41 227.54 279.6Q228.57 281.78 228.12 284.34Q227.71 286.61 226.38 288.46Q225.05 290.3 221.79 292.37L215.65 296.32L226.44 298.22Z" stroke="#202027" stroke-opacity="1.000000" stroke-width="0.634167"/>
			<rect id="Frame 2043683069" rx="18.775000" width="100.966660" height="100.966667" transform="translate(163.181641 227.502930) rotate(10.000000)" stroke="#202027" stroke-opacity="1.000000" stroke-width="0.500000"/>
			<rect id="Frame 2043683070" rx="18.775000" width="100.966660" height="100.966667" transform="translate(270.678711 246.457520) rotate(10.000000)" fill="#D9B6FF" fill-opacity="1.000000"/>
			<path id="10" d="M311.96 319.2Q314.14 320.72 317.03 321.23Q319.72 321.71 322.16 321.12Q322.94 320.93 323.68 320.64Q324.25 320.41 324.78 320.13Q327.18 318.86 328.94 316.39Q331.11 313.37 331.91 308.85Q332.71 304.35 331.71 300.77Q330.9 297.85 329.08 295.83Q328.68 295.39 328.23 294.99Q327.61 294.43 326.92 293.98Q324.85 292.61 322.18 292.14Q319.32 291.63 316.76 292.31Q316.11 292.48 315.47 292.74Q314.95 292.94 314.46 293.2Q312.01 294.47 310.21 296.98Q308.05 300 307.25 304.51Q306.45 309.02 307.44 312.6Q308.27 315.58 310.14 317.61Q310.51 318.02 310.93 318.39Q311.42 318.82 311.96 319.2ZM300.57 317.76L305.53 289.79L292.42 287.48L291.34 293.58L296.53 294.5L292.66 316.36L300.57 317.76ZM319.59 314.74Q318.92 314.9 318.17 314.76Q317.38 314.62 316.77 314.21Q315.81 313.57 315.29 312.26Q314.46 310.1 315.2 305.91Q315.94 301.71 317.47 299.99Q318.4 298.93 319.52 298.65Q320.24 298.48 321.03 298.62Q321.78 298.75 322.36 299.13Q323.34 299.77 323.86 301.12Q324.7 303.26 323.95 307.45Q323.21 311.65 321.69 313.38Q320.74 314.47 319.59 314.74Z" fill="#FFFFFF" fill-opacity="1.000000" fill-rule="evenodd"/>
			<path id="10" d="M305.53 289.79L300.57 317.76L292.66 316.36L296.53 294.5L291.34 293.58L292.42 287.48L305.53 289.79ZM317.03 321.23Q313.42 320.6 310.93 318.39Q308.44 316.18 307.44 312.6Q306.45 309.02 307.25 304.51Q308.05 300 310.21 296.98Q312.38 293.96 315.47 292.74Q318.58 291.5 322.18 292.14Q325.73 292.76 328.23 294.99Q330.72 297.2 331.71 300.77Q332.71 304.35 331.91 308.85Q331.11 313.37 328.94 316.39Q326.79 319.41 323.68 320.64Q320.58 321.86 317.03 321.23ZM318.17 314.76Q320.17 315.12 321.69 313.38Q323.21 311.65 323.95 307.45Q324.7 303.26 323.86 301.12Q323.03 298.97 321.03 298.62Q318.99 298.26 317.47 299.99Q315.94 301.71 315.2 305.91Q314.46 310.1 315.29 312.26Q316.13 314.4 318.17 314.76Z" stroke="#202027" stroke-opacity="1.000000" stroke-width="0.634167"/>
			<rect id="Frame 2043683070" rx="18.775000" width="100.966660" height="100.966667" transform="translate(270.678711 246.457520) rotate(10.000000)" stroke="#202027" stroke-opacity="1.000000" stroke-width="0.500000"/>
			<rect id="Frame 2043683071" rx="18.775000" width="100.966660" height="100.966667" transform="translate(378.175781 265.412109) rotate(10.000000)" fill="#D9B6FF" fill-opacity="1.000000"/>
			<path id="7" d="M432.06 317.21L432.93 312.25L409.75 308.16L407.87 318.75L414.63 319.94L415.39 315.63L422.75 316.92L409.47 336.96L418.1 338.48L432.06 317.21Z" fill="#FFFFFF" fill-opacity="1.000000" fill-rule="evenodd"/>
			<path id="7" d="M432.93 312.25L432.06 317.21L418.1 338.48L409.47 336.96L422.75 316.92L415.39 315.63L414.63 319.94L407.87 318.75L409.75 308.16L432.93 312.25Z" stroke="#202027" stroke-opacity="1.000000" stroke-width="0.634167"/>
			<rect id="Frame 2043683071" rx="18.775000" width="100.966660" height="100.966667" transform="translate(378.175781 265.412109) rotate(10.000000)" stroke="#202027" stroke-opacity="1.000000" stroke-width="0.500000"/>
			<rect id="Frame 2043683129" rx="18.775000" width="100.966660" height="100.966667" transform="translate(-70.752930 297.013306) rotate(10.000000)" fill="#D9B6FF" fill-opacity="1.000000"/>
			<path id="9" d="M-21.12 344.73Q-23.91 341.87 -28.75 341.02Q-31.68 340.5 -34.32 341.18Q-34.4 341.2 -34.49 341.23Q-36.31 341.72 -37.74 342.75Q-38.44 343.26 -39.05 343.89Q-39.55 344.41 -39.95 345Q-41.02 346.58 -41.39 348.64Q-41.73 350.6 -41.29 352.36Q-41.14 352.94 -40.91 353.5Q-40.53 354.4 -39.97 355.18Q-39.16 356.34 -37.97 357.22Q-37.64 357.47 -37.3 357.68Q-35.54 358.79 -33.32 359.18Q-29.83 359.8 -27.24 358.54Q-26.96 358.41 -26.68 358.25Q-27.49 361.07 -29.36 362.43Q-29.54 362.56 -29.72 362.67Q-30.06 362.88 -30.42 363.04Q-32.34 363.92 -34.87 363.48Q-37.99 362.92 -39.77 361.13L-43.65 366.29Q-42.31 367.53 -40.24 368.44Q-38.17 369.36 -35.82 369.78Q-31.38 370.56 -27.69 369.36Q-26.11 368.85 -24.76 367.99Q-22.94 366.83 -21.53 365.03Q-19.05 361.9 -18.2 357.11Q-17.08 350.75 -19.61 346.66Q-19.73 346.46 -19.87 346.26Q-20.43 345.43 -21.12 344.73ZM-27.97 353.61Q-29.05 354.08 -30.44 353.83Q-31.88 353.58 -32.74 352.74Q-32.91 352.57 -33.05 352.38Q-33.35 352 -33.52 351.56Q-33.84 350.7 -33.65 349.64Q-33.45 348.48 -32.77 347.75Q-32.5 347.46 -32.14 347.23Q-31.88 347.07 -31.59 346.95Q-30.55 346.52 -29.23 346.75Q-27.66 347.03 -26.79 347.96Q-26.66 348.09 -26.55 348.24Q-26.21 348.69 -26.04 349.2Q-25.77 350.01 -25.94 350.95Q-26.12 351.97 -26.69 352.66Q-27.02 353.06 -27.48 353.35Q-27.72 353.5 -27.97 353.61Z" fill="#FFFFFF" fill-opacity="1.000000" fill-rule="evenodd"/>
			<path id="9" d="M-28.75 341.02Q-22.71 342.08 -19.87 346.26Q-17.02 350.43 -18.2 357.11Q-19.05 361.9 -21.53 365.03Q-23.99 368.16 -27.69 369.36Q-31.38 370.56 -35.82 369.78Q-38.17 369.36 -40.24 368.44Q-42.31 367.53 -43.65 366.29L-39.77 361.13Q-37.99 362.92 -34.87 363.48Q-31.87 364 -29.72 362.67Q-27.56 361.34 -26.68 358.25Q-29.45 359.86 -33.32 359.18Q-35.96 358.71 -37.97 357.22Q-39.97 355.73 -40.91 353.5Q-41.85 351.25 -41.39 348.64Q-40.88 345.81 -39.05 343.89Q-37.19 341.97 -34.49 341.23Q-31.78 340.48 -28.75 341.02ZM-30.44 353.83Q-28.72 354.13 -27.48 353.35Q-26.22 352.55 -25.94 350.95Q-25.66 349.4 -26.55 348.24Q-27.43 347.07 -29.23 346.75Q-30.91 346.45 -32.14 347.23Q-33.36 348 -33.65 349.64Q-33.94 351.23 -33.05 352.38Q-32.16 353.53 -30.44 353.83Z" stroke="#202027" stroke-opacity="1.000000" stroke-width="0.634167"/>
			<rect id="Frame 2043683129" rx="18.775000" width="100.966660" height="100.966667" transform="translate(-70.752930 297.013306) rotate(10.000000)" stroke="#202027" stroke-opacity="1.000000" stroke-width="0.500000"/>
			<rect id="Frame 2043683130" rx="18.775000" width="100.966660" height="100.966667" transform="translate(36.744141 315.967896) rotate(10.000000)" fill="#D9B6FF" fill-opacity="1.000000"/>
			<path id="4" d="M85.62 385.09L89.78 385.83L90.89 379.55L86.73 378.82L87.57 374.07L80.1 372.75L79.26 377.5L73.58 376.5L87.86 362.16L79.67 360.72L64.03 375.97L63.12 381.12L77.9 383.73L76.95 389.09L84.67 390.45L85.62 385.09Z" fill="#FFFFFF" fill-opacity="1.000000" fill-rule="evenodd"/>
			<path id="4" d="M89.78 385.83L85.62 385.09L84.67 390.45L76.95 389.09L77.9 383.73L63.12 381.12L64.03 375.97L79.67 360.72L87.86 362.16L73.58 376.5L79.26 377.5L80.1 372.75L87.57 374.07L86.73 378.82L90.89 379.55L89.78 385.83Z" stroke="#202027" stroke-opacity="1.000000" stroke-width="0.634167"/>
			<rect id="Frame 2043683130" rx="18.775000" width="100.966660" height="100.966667" transform="translate(36.744141 315.967896) rotate(10.000000)" stroke="#202027" stroke-opacity="1.000000" stroke-width="0.500000"/>
			<rect id="Frame 2043683131" rx="18.775000" width="100.966660" height="100.966667" transform="translate(144.241211 334.922363) rotate(10.000000)" fill="#D9B6FF" fill-opacity="1.000000"/>
			<path id="92" d="M182.06 380.55Q179.28 377.7 174.44 376.85Q171.5 376.33 168.87 377.01Q168.78 377.03 168.7 377.05Q166.88 377.55 165.45 378.58Q164.75 379.09 164.14 379.72Q163.64 380.24 163.24 380.83Q162.16 382.41 161.8 384.47Q161.45 386.43 161.9 388.19Q162.04 388.77 162.28 389.32Q162.66 390.23 163.21 391.01Q164.03 392.16 165.22 393.05Q165.54 393.29 165.89 393.51Q167.65 394.62 169.86 395.01Q173.36 395.62 175.95 394.37Q176.23 394.23 176.5 394.07Q175.69 396.9 173.82 398.26Q173.65 398.38 173.46 398.5Q173.12 398.71 172.77 398.87Q170.84 399.75 168.32 399.3Q165.19 398.75 163.41 396.96L159.54 402.12Q160.88 403.35 162.94 404.27Q165.01 405.19 167.36 405.6Q171.8 406.39 175.5 405.19Q177.07 404.67 178.42 403.81Q180.24 402.65 181.66 400.86Q184.13 397.72 184.98 392.93Q186.11 386.58 183.58 382.49Q183.45 382.28 183.31 382.08Q182.75 381.26 182.06 380.55ZM206.39 411.91L207.5 405.64L196.71 403.73L202.85 399.79Q206.11 397.72 207.44 395.88Q208.02 395.08 208.42 394.2Q208.95 393.05 209.18 391.76Q209.49 389.99 209.09 388.4Q208.92 387.69 208.6 387.02Q208.46 386.72 208.29 386.43Q207.26 384.63 205.29 383.36Q203.02 381.89 199.82 381.32Q195.79 380.61 192.54 381.65Q190.33 382.36 188.63 383.72Q187.86 384.35 187.19 385.11L192.49 389.43Q193.27 388.57 194.24 388.1Q194.6 387.92 194.99 387.79Q195.37 387.67 195.76 387.59Q196.83 387.39 197.97 387.6Q199.73 387.91 200.51 388.83Q200.75 389.11 200.9 389.44Q201.22 390.17 201.05 391.11Q201.04 391.15 201.04 391.19Q200.84 392.18 200.17 393.08Q199.47 394 197.69 395.17L185.49 403.11L184.61 408.07L206.39 411.91ZM175.21 389.43Q174.13 389.9 172.74 389.66Q171.31 389.4 170.44 388.56Q170.28 388.4 170.13 388.21Q169.83 387.82 169.67 387.38Q169.34 386.52 169.53 385.47Q169.74 384.31 170.41 383.58Q170.69 383.28 171.04 383.06Q171.31 382.89 171.59 382.78Q172.64 382.34 173.96 382.58Q175.53 382.85 176.4 383.79Q176.52 383.92 176.63 384.07Q176.98 384.52 177.15 385.03Q177.42 385.83 177.25 386.78Q177.07 387.79 176.5 388.49Q176.17 388.88 175.71 389.17Q175.47 389.32 175.21 389.43Z" fill="#FFFFFF" fill-opacity="1.000000" fill-rule="evenodd"/>
			<path id="92" d="M174.44 376.85Q180.47 377.91 183.31 382.08Q186.17 386.26 184.98 392.93Q184.13 397.72 181.66 400.86Q179.19 403.99 175.5 405.19Q171.8 406.39 167.36 405.6Q165.01 405.19 162.94 404.27Q160.88 403.35 159.54 402.12L163.41 396.96Q165.19 398.75 168.32 399.3Q171.31 399.83 173.46 398.5Q175.62 397.17 176.5 394.07Q173.74 395.69 169.86 395.01Q167.22 394.54 165.22 393.05Q163.22 391.56 162.28 389.32Q161.34 387.07 161.8 384.47Q162.3 381.64 164.14 379.72Q165.99 377.79 168.7 377.05Q171.4 376.31 174.44 376.85ZM172.74 389.66Q174.46 389.96 175.71 389.17Q176.96 388.38 177.25 386.78Q177.52 385.23 176.63 384.07Q175.75 382.89 173.96 382.58Q172.28 382.28 171.04 383.06Q169.82 383.83 169.53 385.47Q169.25 387.06 170.13 388.21Q171.03 389.36 172.74 389.66ZM207.5 405.64L206.39 411.91L184.61 408.07L185.49 403.11L197.69 395.17Q199.47 394 200.17 393.08Q200.87 392.14 201.05 391.11Q201.29 389.74 200.51 388.83Q199.73 387.91 197.97 387.6Q196.41 387.32 194.99 387.79Q193.56 388.26 192.49 389.43L187.19 385.11Q189.31 382.69 192.54 381.65Q195.79 380.61 199.82 381.32Q203.02 381.89 205.29 383.36Q207.57 384.83 208.6 387.02Q209.63 389.2 209.18 391.76Q208.77 394.03 207.44 395.88Q206.11 397.72 202.85 399.79L196.71 403.73L207.5 405.64Z" stroke="#202027" stroke-opacity="1.000000" stroke-width="0.634167"/>
			<rect id="Frame 2043683131" rx="18.775000" width="100.966660" height="100.966667" transform="translate(144.241211 334.922363) rotate(10.000000)" stroke="#202027" stroke-opacity="1.000000" stroke-width="0.500000"/>
			<rect id="Frame 2043683132" rx="18.775000" width="100.966660" height="100.966667" transform="translate(251.738281 353.877197) rotate(10.000000)" fill="#D9B6FF" fill-opacity="1.000000"/>
			<path id="10" d="M293.02 426.62Q295.19 428.14 298.08 428.65Q300.78 429.13 303.22 428.54Q303.99 428.35 304.74 428.06Q305.31 427.83 305.84 427.55Q308.24 426.28 310 423.81Q312.17 420.79 312.97 416.27Q313.76 411.77 312.77 408.19Q311.96 405.26 310.14 403.25Q309.74 402.81 309.29 402.4Q308.67 401.85 307.98 401.4Q305.91 400.03 303.24 399.56Q300.38 399.05 297.82 399.73Q297.17 399.9 296.53 400.16Q296.01 400.36 295.52 400.62Q293.07 401.89 291.27 404.4Q289.1 407.42 288.31 411.93Q287.51 416.44 288.5 420.02Q289.33 423 291.2 425.03Q291.57 425.44 291.99 425.81Q292.48 426.24 293.02 426.62ZM281.63 425.18L286.59 397.21L273.48 394.89L272.4 401L277.59 401.92L273.72 423.78L281.63 425.18ZM300.65 422.16Q299.97 422.32 299.23 422.18Q298.44 422.04 297.83 421.63Q296.87 420.99 296.35 419.67Q295.52 417.52 296.26 413.33Q297 409.13 298.53 407.41Q299.46 406.35 300.58 406.07Q301.3 405.9 302.09 406.04Q302.84 406.17 303.42 406.55Q304.4 407.19 304.92 408.54Q305.76 410.68 305.01 414.87Q304.27 419.07 302.75 420.8Q301.79 421.89 300.65 422.16Z" fill="#FFFFFF" fill-opacity="1.000000" fill-rule="evenodd"/>
			<path id="10" d="M286.59 397.21L281.63 425.18L273.72 423.78L277.59 401.92L272.4 401L273.48 394.89L286.59 397.21ZM298.08 428.65Q294.48 428.02 291.99 425.81Q289.5 423.6 288.5 420.02Q287.51 416.44 288.31 411.93Q289.1 407.42 291.27 404.4Q293.44 401.38 296.53 400.16Q299.64 398.92 303.24 399.56Q306.79 400.18 309.29 402.4Q311.78 404.62 312.77 408.19Q313.76 411.77 312.97 416.27Q312.17 420.79 310 423.81Q307.85 426.83 304.74 428.06Q301.64 429.28 298.08 428.65ZM299.23 422.18Q301.23 422.54 302.75 420.8Q304.27 419.07 305.01 414.87Q305.76 410.68 304.92 408.54Q304.09 406.39 302.09 406.04Q300.05 405.68 298.53 407.41Q297 409.13 296.26 413.33Q295.52 417.52 296.35 419.67Q297.19 421.82 299.23 422.18Z" stroke="#202027" stroke-opacity="1.000000" stroke-width="0.634167"/>
			<rect id="Frame 2043683132" rx="18.775000" width="100.966660" height="100.966667" transform="translate(251.738281 353.877197) rotate(10.000000)" stroke="#202027" stroke-opacity="1.000000" stroke-width="0.500000"/>
			<rect id="Frame 2043683133" rx="18.775000" width="100.966660" height="100.966667" transform="translate(359.234375 372.831787) rotate(10.000000)" fill="#D9B6FF" fill-opacity="1.000000"/>
			<path id="7" d="M413.11 424.63L413.99 419.67L390.81 415.58L388.93 426.17L395.68 427.36L396.45 423.05L403.81 424.34L390.53 444.38L399.16 445.9L413.11 424.63Z" fill="#FFFFFF" fill-opacity="1.000000" fill-rule="evenodd"/>
			<path id="7" d="M413.99 419.67L413.11 424.63L399.16 445.9L390.53 444.38L403.81 424.34L396.45 423.05L395.68 427.36L388.93 426.17L390.81 415.58L413.99 419.67Z" stroke="#202027" stroke-opacity="1.000000" stroke-width="0.634167"/>
			<rect id="Frame 2043683133" rx="18.775000" width="100.966660" height="100.966667" transform="translate(359.234375 372.831787) rotate(10.000000)" stroke="#202027" stroke-opacity="1.000000" stroke-width="0.500000"/>
			<g filter="url(#filter_14_3609_dd)">
				<rect id="Frame 2043683065" rx="18.775000" width="151.261551" height="151.029739" transform="translate(161.827148 91.390991) rotate(10.000001)" fill="#E9D4FF" fill-opacity="1.000000"/>
				<path id="?" d="M217.55 180.09Q215.34 182.37 214.63 186.37L228.86 188.88Q229.08 187.6 229.72 186.59Q230.17 185.88 230.82 185.3Q232.4 183.89 235.52 182.05Q238.38 180.34 240.23 178.89Q242.09 177.43 243.65 175.11Q245.23 172.79 245.81 169.53Q246.46 165.85 245.41 162.74Q244.44 159.84 241.97 157.43Q236.88 152.44 227.38 150.77Q218.9 149.27 212.34 151.34Q208.21 152.64 204.99 155.12Q203.1 156.57 201.53 158.42L212.32 166.91Q213.73 165.26 215.51 164.23Q216.35 163.75 217.27 163.41Q218.06 163.12 218.89 162.95Q221.02 162.5 223.33 162.91Q226.44 163.46 228.14 165.21Q229.08 166.17 229.39 167.31Q229.63 168.24 229.45 169.28Q229.38 169.7 229.23 170.09Q228.81 171.28 227.76 172.25Q226.39 173.51 223.7 175.27Q219.79 177.78 217.55 180.09ZM213.48 206.74Q215.33 208.25 218.02 208.72Q220.89 209.23 223.25 208.34Q224.17 208 225.01 207.44Q226.53 206.43 227.44 205.02Q228.31 203.66 228.62 201.94Q228.98 199.87 228.43 198.09Q228.03 196.75 227.11 195.57Q226.62 194.94 226.03 194.42Q224.05 192.64 220.96 192.1Q217.83 191.54 215.36 192.57Q214.67 192.86 214.03 193.27Q212.82 194.04 212 195.11Q210.84 196.62 210.47 198.74Q210.16 200.46 210.52 202.03Q210.89 203.67 211.97 205.14Q212.64 206.05 213.48 206.74Z" fill="#FFFFFF" fill-opacity="1.000000" fill-rule="evenodd"/>
				<path id="?" d="M214.63 186.37Q215.34 182.37 217.55 180.09Q219.79 177.78 223.7 175.27Q226.39 173.51 227.76 172.25Q229.15 170.96 229.45 169.28Q229.86 166.96 228.14 165.21Q226.44 163.46 223.33 162.91Q220.13 162.35 217.27 163.41Q214.4 164.48 212.32 166.91L201.53 158.42Q205.8 153.4 212.34 151.34Q218.9 149.27 227.38 150.77Q236.88 152.44 241.97 157.43Q247.07 162.41 245.81 169.53Q245.23 172.79 243.65 175.11Q242.09 177.43 240.23 178.89Q238.38 180.34 235.52 182.05Q232.4 183.89 230.82 185.3Q229.24 186.71 228.86 188.88L214.63 186.37ZM218.02 208.72Q214.09 208.03 211.97 205.14Q209.84 202.25 210.47 198.74Q211.1 195.13 214.03 193.27Q216.96 191.39 220.96 192.1Q224.96 192.8 227.11 195.57Q229.26 198.33 228.62 201.94Q227.99 205.45 225.01 207.44Q222.02 209.43 218.02 208.72Z" stroke="#202027" stroke-opacity="1.000000" stroke-width="0.634167"/>
				<rect id="Frame 2043683065" rx="18.775000" width="151.261551" height="151.029739" transform="translate(161.827148 91.390991) rotate(10.000001)" stroke="#202027" stroke-opacity="1.000000" stroke-width="0.500000"/>
			</g>
		</g>
		<rect id="Frame 2043683020" rx="17.474174" width="106.948349" height="34.948349" transform="translate(67.209419 368.597351)" fill="#F7F7F7" fill-opacity="1.000000"/>
		<path id="Игра № 1" d="M142.5 384.62Q143.13 384.94 143.93 384.94Q144.73 384.94 145.37 384.61Q145.38 384.61 145.39 384.6Q145.84 384.37 146.15 384.02Q146.28 383.86 146.4 383.68Q146.51 383.49 146.59 383.28Q146.76 382.85 146.76 382.35Q146.76 381.82 146.58 381.37Q146.5 381.19 146.4 381.02Q146.27 380.81 146.11 380.64Q145.81 380.31 145.39 380.1Q144.74 379.77 143.93 379.77Q143.11 379.77 142.46 380.1Q142.05 380.31 141.75 380.62Q141.58 380.8 141.45 381.02Q141.34 381.2 141.26 381.39Q141.08 381.83 141.08 382.35Q141.08 382.84 141.24 383.27Q141.33 383.48 141.45 383.68Q141.57 383.87 141.72 384.03Q142.02 384.38 142.46 384.6Q142.48 384.61 142.5 384.62ZM86.01 379.87L84.42 379.87L84.42 391.07L85.89 391.07L92.53 382.44L92.53 391.07L94.1 391.07L94.1 379.87L92.63 379.87L86.01 388.51L86.01 379.87ZM139.62 379.87L138.02 379.87L138.02 388.22L131.3 379.87L129.99 379.87L129.99 391.07L131.59 391.07L131.59 382.72L138.31 391.07L139.62 391.07L139.62 379.87ZM156.12 391.07L156.12 379.87L152.01 379.87L152.01 381.26L154.53 381.26L154.53 391.07L156.12 391.07ZM142.85 380.98Q143.29 380.68 143.93 380.68Q144.52 380.68 144.94 380.95Q145.08 381.04 145.2 381.15Q145.37 381.31 145.48 381.51Q145.69 381.87 145.69 382.35Q145.69 382.82 145.49 383.17Q145.38 383.38 145.2 383.55Q145.08 383.66 144.94 383.75Q144.52 384.01 143.93 384.01Q143.33 384.01 142.9 383.75Q142.77 383.66 142.65 383.55Q142.46 383.37 142.34 383.16Q142.15 382.8 142.15 382.35Q142.15 381.87 142.36 381.51Q142.47 381.31 142.64 381.15Q142.74 381.05 142.85 380.98ZM111.59 382.92Q110.71 382.51 109.64 382.51Q108.71 382.51 107.94 382.85Q107.93 382.86 107.91 382.87Q107.55 383.03 107.25 383.27Q106.89 383.55 106.62 383.93L106.62 382.59L105.14 382.59L105.14 394.17L106.68 394.17L106.68 389.79Q106.99 390.19 107.39 390.47Q107.66 390.67 107.96 390.81Q108 390.83 108.04 390.85Q108.77 391.16 109.64 391.16Q110.71 391.16 111.59 390.75Q111.72 390.69 111.85 390.62Q112.31 390.36 112.68 390.01Q113.08 389.61 113.37 389.09Q113.4 389.05 113.42 389.01Q113.92 388.06 113.92 386.83Q113.92 385.57 113.39 384.6Q113.38 384.59 113.37 384.57Q113.09 384.07 112.7 383.69Q112.32 383.32 111.85 383.05Q111.72 382.98 111.59 382.92ZM121.79 383.37Q120.86 382.51 119.09 382.51Q118.07 382.51 117.16 382.79Q116.25 383.07 115.59 383.59L116.23 384.75Q116.73 384.33 117.45 384.09Q117.93 383.92 118.44 383.86Q118.68 383.84 118.92 383.84Q120.04 383.84 120.61 384.36Q120.71 384.45 120.79 384.55Q121.19 385.05 121.19 385.88L121.19 386.19L118.76 386.19Q116.99 386.19 116.17 386.87Q115.82 387.16 115.62 387.53Q115.35 388.02 115.35 388.67Q115.35 389.25 115.58 389.72Q115.8 390.15 116.21 390.48Q117.06 391.16 118.49 391.16Q119.46 391.16 120.17 390.85Q120.74 390.61 121.09 390.18Q121.19 390.07 121.27 389.95L121.27 391.07L122.73 391.07L122.73 385.95Q122.73 384.39 121.95 383.54Q121.88 383.45 121.79 383.37ZM98.87 383.93L103.57 383.93L103.57 382.59L97.33 382.59L97.33 391.07L98.87 391.07L98.87 383.93ZM110.73 389.57Q110.17 389.82 109.51 389.82Q108.94 389.82 108.44 389.63Q108.24 389.55 108.05 389.45Q107.77 389.28 107.54 389.06Q107.24 388.77 107.03 388.39Q106.66 387.71 106.66 386.83Q106.66 385.95 107.04 385.27Q107.26 384.87 107.58 384.58Q107.8 384.38 108.06 384.23Q108.23 384.13 108.4 384.06Q108.91 383.85 109.51 383.85Q110.2 383.85 110.77 384.11Q110.87 384.16 110.98 384.22Q111.21 384.35 111.41 384.53Q111.76 384.83 112 385.27Q112 385.28 112.01 385.29Q112.37 385.96 112.37 386.83Q112.37 387.68 112.02 388.35Q112.01 388.37 112 388.39Q111.77 388.81 111.43 389.11Q111.22 389.3 110.98 389.45Q110.85 389.52 110.73 389.57ZM146.46 386.2L141.4 386.2L141.4 387.24L146.46 387.24L146.46 386.2ZM120.26 389.59Q119.62 389.98 118.74 389.98Q117.86 389.98 117.37 389.61Q117.14 389.44 117.02 389.22Q116.87 388.95 116.87 388.6Q116.87 388.19 117.06 387.91Q117.48 387.29 118.83 387.29L121.19 387.29L121.19 388.47Q121.02 388.9 120.73 389.21Q120.52 389.43 120.26 389.59Z" fill="#202027" fill-opacity="1.000000" fill-rule="evenodd"/>
		<path id="Угадай число" d="M172.73 430.42Q174.13 432 177.3 432Q180.51 432 181.91 430.41Q182.98 429.19 183 427.04L179.67 427.04Q179.67 428.01 179.2 428.61Q179.13 428.7 179.04 428.78Q178.99 428.83 178.94 428.88Q178.33 429.4 177.27 429.4Q176.22 429.4 175.64 428.88Q175.58 428.83 175.53 428.78Q175.5 428.75 175.47 428.72Q174.93 428.1 174.9 427.04L171.64 427.04Q171.65 429.2 172.73 430.42ZM80.15 446.4L89.69 428.67L84.6 428.67L78.45 440.7L72.5 428.67L66.97 428.67L75.8 445.11L75.61 445.37Q74.97 446.36 74.19 446.83Q74 446.95 73.8 447.04Q73.19 447.29 72.47 447.29Q71.58 447.29 70.23 446.87L68.98 450.81Q70.87 451.58 72.63 451.58Q73.6 451.58 74.5 451.35Q75.72 451.03 76.83 450.27Q78.77 448.96 80.15 446.4ZM120.41 435.5Q118.27 433.6 114.27 433.6Q112.75 433.6 111.29 433.89Q110.75 434 110.22 434.15Q108.25 434.68 106.84 435.68L108.64 439.16Q109.57 438.43 110.89 438Q111.78 437.7 112.69 437.61Q113.14 437.56 113.6 437.56Q115.58 437.56 116.57 438.44Q116.78 438.63 116.94 438.84Q117.57 439.67 117.57 440.96L113.6 440.96Q109.82 440.96 108.01 442.33Q107.24 442.92 106.79 443.7Q106.21 444.74 106.21 446.11Q106.21 447.16 106.58 448.06Q106.74 448.45 106.97 448.8Q107.05 448.92 107.13 449.03Q107.88 450.05 109.19 450.65Q110.65 451.32 112.64 451.32Q115.7 451.32 117.22 449.79Q117.6 449.41 117.89 448.93L117.89 451.07L122.56 451.07L122.56 441.25Q122.56 437.83 120.86 435.95Q120.65 435.71 120.41 435.5ZM162.17 435.5Q160.03 433.6 156.03 433.6Q154.51 433.6 153.05 433.89Q152.51 434 151.98 434.15Q150.01 434.68 148.6 435.68L150.4 439.16Q151.33 438.43 152.65 438Q153.54 437.7 154.45 437.61Q154.9 437.56 155.36 437.56Q157.34 437.56 158.33 438.44Q158.54 438.63 158.7 438.84Q159.33 439.67 159.33 440.96L155.36 440.96Q151.58 440.96 149.77 442.33Q149 442.92 148.55 443.7Q147.97 444.74 147.97 446.11Q147.97 447.16 148.34 448.06Q148.5 448.45 148.73 448.8Q148.81 448.92 148.89 449.03Q149.64 450.05 150.95 450.65Q152.41 451.32 154.4 451.32Q157.46 451.32 158.98 449.79Q159.36 449.41 159.65 448.93L159.65 451.07L164.32 451.07L164.32 441.25Q164.32 437.83 162.62 435.95Q162.41 435.71 162.17 435.5ZM246.88 450.28Q249 451.32 251.64 451.32Q254.36 451.32 256.39 450.18Q257.61 449.48 258.44 448.46Q258.98 447.79 259.35 446.97L255.48 444.86Q254.75 446.17 253.63 446.76Q252.74 447.22 251.61 447.22Q250.37 447.22 249.41 446.71Q248.85 446.42 248.38 445.95Q248.14 445.72 247.96 445.46Q247.09 444.27 247.09 442.46Q247.09 440.66 247.95 439.48Q248.14 439.21 248.38 438.97Q248.85 438.5 249.42 438.2Q250.39 437.69 251.61 437.69Q252.68 437.69 253.54 438.12Q254.7 438.7 255.48 440.06L259.35 437.98Q258.9 436.95 258.19 436.16Q257.44 435.31 256.39 434.73Q254.36 433.6 251.64 433.6Q249 433.6 246.88 434.64Q246.79 434.68 246.7 434.73Q245.27 435.47 244.24 436.58Q243.7 437.18 243.27 437.88Q242.99 438.33 242.78 438.81Q242.04 440.47 242.04 442.46Q242.04 444.45 242.78 446.11Q242.99 446.59 243.27 447.04Q243.69 447.72 244.22 448.31Q245.25 449.44 246.7 450.19Q246.79 450.24 246.88 450.28ZM286.85 450.31Q288.93 451.32 291.51 451.32Q294.19 451.32 296.3 450.23Q296.34 450.21 296.38 450.19Q297.7 449.49 298.67 448.45Q299.27 447.81 299.73 447.04Q300 446.6 300.2 446.15Q300.95 444.47 300.95 442.46Q300.95 440.45 300.2 438.77Q300 438.31 299.73 437.88Q299.26 437.1 298.65 436.45Q297.69 435.42 296.38 434.73Q296.34 434.71 296.3 434.69Q294.19 433.6 291.51 433.6Q288.93 433.6 286.85 434.62Q286.74 434.67 286.63 434.73Q285.3 435.43 284.32 436.46Q283.72 437.11 283.25 437.88Q283 438.3 282.8 438.73Q282.04 440.42 282.04 442.46Q282.04 444.49 282.8 446.18Q283 446.62 283.25 447.04Q283.71 447.8 284.3 448.43Q285.28 449.48 286.63 450.19Q286.74 450.25 286.85 450.31ZM96.09 437.95L104.92 437.95L104.92 433.85L91.13 433.85L91.13 451.07L96.09 451.07L96.09 437.95ZM146.2 454.78L146.2 446.97L143.74 446.97L143.74 433.85L128.73 433.85L128.5 439.8Q128.35 443.22 127.74 445.08Q127.34 446.28 126.54 446.72Q126.09 446.96 125.53 446.97L124.82 446.97L124.82 454.78L129.46 454.78L129.46 451.07L141.56 451.07L141.56 454.78L146.2 454.78ZM173.62 433.85L168.66 433.85L168.66 451.07L173.27 451.07L181.62 440.82L181.62 451.07L186.58 451.07L186.58 433.85L182.01 433.85L173.62 444.09L173.62 433.85ZM215.93 451.07L215.93 433.85L210.94 433.85L210.94 441.08Q210.23 441.43 209.48 441.63Q208.41 441.92 207.26 441.92Q205.72 441.92 204.9 441.22Q204.87 441.19 204.84 441.16Q204.09 440.44 204.09 438.94L204.09 433.85L199.09 433.85L199.09 439.26Q199.09 442.38 200.65 443.97Q200.76 444.08 200.87 444.18Q202.65 445.75 206.13 445.75Q208.36 445.75 210.27 444.97Q210.61 444.83 210.94 444.67L210.94 451.07L215.93 451.07ZM225.69 433.85L220.73 433.85L220.73 451.07L225.33 451.07L233.69 440.82L233.69 451.07L238.65 451.07L238.65 433.85L234.07 433.85L225.69 444.09L225.69 433.85ZM278.65 451.07L278.65 433.85L263.93 433.85L263.67 440.76Q263.58 442.84 263.38 444.11Q263.19 445.37 262.63 446.19Q262.43 446.48 262.16 446.67Q261.67 447 260.95 447Q260.73 447 260.21 446.94L259.96 451.04Q261.46 451.42 262.55 451.42Q264.1 451.42 265.14 450.69Q265.47 450.45 265.75 450.14Q266.91 448.86 267.41 446.62Q267.93 444.38 268.06 440.99L268.21 437.95L273.66 437.95L273.66 451.07L278.65 451.07ZM293.62 446.73Q292.7 447.22 291.51 447.22Q290.35 447.22 289.44 446.75Q288.84 446.44 288.34 445.93Q288.12 445.7 287.94 445.44Q287.09 444.25 287.09 442.46Q287.09 440.68 287.93 439.49Q288.11 439.23 288.34 438.99Q288.85 438.47 289.45 438.16Q290.36 437.69 291.51 437.69Q292.69 437.69 293.61 438.18Q294.19 438.49 294.66 438.99Q294.87 439.21 295.05 439.45Q295.9 440.65 295.9 442.46Q295.9 444.28 295.04 445.48Q294.87 445.72 294.66 445.93Q294.19 446.43 293.62 446.73ZM132.61 444.44Q132.92 442.78 133.02 440.15L133.11 437.95L138.75 437.95L138.75 446.97L131.48 446.97Q132.31 446.11 132.61 444.44ZM115.81 447.56Q114.94 447.97 113.89 447.97Q112.57 447.97 111.82 447.4Q111.46 447.14 111.28 446.79Q111.07 446.39 111.07 445.88Q111.07 445.27 111.34 444.85Q111.99 443.86 114.14 443.86L117.57 443.86L117.57 445.63Q117.3 446.35 116.81 446.85Q116.52 447.15 116.15 447.37Q115.98 447.47 115.81 447.56ZM157.57 447.56Q156.7 447.97 155.65 447.97Q154.33 447.97 153.58 447.4Q153.22 447.14 153.04 446.79Q152.83 446.39 152.83 445.88Q152.83 445.27 153.1 444.85Q153.75 443.86 155.9 443.86L159.33 443.86L159.33 445.63Q159.06 446.35 158.57 446.85Q158.28 447.15 157.91 447.37Q157.74 447.47 157.57 447.56Z" fill="#202027" fill-opacity="1.000000" fill-rule="evenodd"/>
	</g>
</svg>
